<?xml version="1.0" encoding="utf-8"?>
<!-- Generator: Adobe Illustrator 24.0.1, SVG Export Plug-In . SVG Version: 6.00 Build 0)  -->
<svg version="1.1" id="Слой_1" xmlns="http://www.w3.org/2000/svg" xmlns:xlink="http://www.w3.org/1999/xlink" x="0px" y="0px"
	 viewBox="0 0 1920 434.3" style="enable-background:new 0 0 1920 434.3;" xml:space="preserve">
<style type="text/css">
	.st0{fill:#FCA53F;}
	.st1{opacity:0.5;fill:none;stroke:#FFFFFF;stroke-width:12;enable-background:new    ;}
	.st2{opacity:0.5;fill:none;stroke:#FFFFFF;stroke-width:7;enable-background:new    ;}
</style>
<path class="st0" d="M0,416.5C0.1,277.4,0.1,138.4,0.2-0.7c639.9,0.5,1279.9,1,1919.8,1.4c0,144.1,0,288.1,0,432.2
	c-12.7-3.2-74.6-18.9-220.3-56.5c-341.6-88.1-612.9-25.5-836,0C661.3,399.5,368.4,422.8,0,416.5z"/>
<rect x="456.7" y="340.9" transform="matrix(0.6853 -0.7282 0.7282 0.6853 -110.7734 455.5365)" class="st1" width="30.1" height="30.1"/>
<rect x="1775.9" y="318.8" transform="matrix(0.8114 -0.5845 0.5845 0.8114 143.3126 1108.5009)" class="st1" width="26.8" height="26.8"/>
<circle class="st2" cx="1855.1" cy="216.7" r="14.7"/>
<circle class="st2" cx="207.5" cy="339.3" r="14.7"/>
</svg>
