<svg width="28" height="26" viewBox="0 0 28 26" fill="none" xmlns="http://www.w3.org/2000/svg">
<path d="M27.6798 6.78133L21.2186 0.319676C21.0052 0.1065 20.7525 0 20.461 0C20.327 0 20.1863 0.0280541 20.0407 0.0839856C19.603 0.274766 19.3842 0.605699 19.3842 1.07684V4.30785H16.6918C15.5028 4.30785 14.4003 4.36955 13.3853 4.49291C12.3702 4.61621 11.4755 4.78718 10.7015 5.00614C9.92743 5.22468 9.22908 5.49685 8.60647 5.82218C7.98397 6.1474 7.45395 6.49242 7.01634 6.85706C6.57867 7.22165 6.19458 7.6368 5.86365 8.10235C5.53254 8.56784 5.26909 9.0249 5.07259 9.47365C4.87645 9.92251 4.71944 10.4161 4.60156 10.9544C4.48357 11.493 4.40513 11.9977 4.36588 12.4687C4.32662 12.9399 4.307 13.4504 4.307 13.9999C4.307 14.6283 4.4053 15.3124 4.60156 16.0531C4.79788 16.7933 5.01383 17.4327 5.2494 17.9712C5.48492 18.5093 5.76269 19.0676 6.08242 19.6452C6.4021 20.2229 6.62358 20.6069 6.747 20.7977C6.87035 20.9881 6.98835 21.1624 7.10044 21.3193C7.2126 21.4652 7.35841 21.538 7.53782 21.538C7.5829 21.538 7.64992 21.527 7.73979 21.5045C7.99776 21.381 8.10986 21.1907 8.07621 20.9325C7.57147 17.1633 7.98662 14.51 9.32143 12.9732C10.6117 11.5037 13.0684 10.7688 16.6916 10.7688H19.3842V13.9995C19.3842 14.4711 19.6029 14.8018 20.0405 14.9927C20.1862 15.0487 20.3265 15.0766 20.4609 15.0766C20.7638 15.0766 21.0163 14.9701 21.2184 14.7571L27.6799 8.29537C27.8928 8.08208 27.9996 7.82988 27.9996 7.5382C27.9995 7.24676 27.8928 6.99415 27.6798 6.78133Z" fill="white"/>
<path d="M23.3389 16.1537C23.1252 16.0636 22.9292 16.1088 22.7499 16.2883C22.4583 16.5575 22.1551 16.7653 21.8411 16.9109C21.6388 17.023 21.5381 17.1855 21.5381 17.3987V21C21.5381 21.7404 21.2749 22.3737 20.7475 22.9013C20.2203 23.4286 19.5862 23.6922 18.8459 23.6922H4.84593C4.10545 23.6922 3.47164 23.4286 2.94438 22.9013C2.41707 22.3737 2.15357 21.7405 2.15357 21V6.99976C2.15357 6.25933 2.41707 5.62575 2.94438 5.0985C3.47158 4.57119 4.10539 4.30768 4.84593 4.30768H6.73057C6.79782 4.30768 6.8877 4.2851 6.99979 4.24031C7.62806 3.85881 8.3738 3.52216 9.23776 3.23054C9.52944 3.17455 9.67525 2.99514 9.67525 2.69209C9.67525 2.54628 9.62203 2.42033 9.51541 2.31353C9.40879 2.20721 9.28284 2.15393 9.13686 2.15393H4.84617C3.51124 2.15393 2.36975 2.6279 1.4218 3.57579C0.473973 4.52362 0 5.66512 0 7.00005V20.9998C0 22.3348 0.473973 23.4763 1.42186 24.4242C2.36981 25.3722 3.5113 25.8461 4.84623 25.8461H18.8462C20.181 25.8461 21.3226 25.3722 22.2705 24.4242C23.2185 23.4763 23.6925 22.3349 23.6925 20.9998V16.6417C23.6925 16.4174 23.5746 16.2548 23.3389 16.1537Z" fill="white"/>
</svg>
