<svg width="26" height="22" viewBox="0 0 26 22" fill="none" xmlns="http://www.w3.org/2000/svg">
<path d="M24.8521 0.277832H1.14786C0.514922 0.277832 0 0.792754 0 1.42569V20.5743C0 21.2072 0.514922 21.7221 1.14786 21.7221H24.8521C25.4851 21.7221 26 21.2072 26 20.5743V1.42569C26 0.792754 25.4851 0.277832 24.8521 0.277832ZM24.8521 20.5743L1.14791 20.575L1.14786 1.42569H24.8521V20.5743Z" fill="white"/>
<path d="M22.6978 3.00604H3.30183C2.9849 3.00604 2.7279 3.26304 2.7279 3.57997V16.2651C2.7279 16.5821 2.9849 16.839 3.30183 16.839H22.6977C23.0147 16.839 23.2717 16.582 23.2717 16.2651V3.57997C23.2717 3.26304 23.0147 3.00604 22.6978 3.00604ZM3.87576 4.1539H22.1238V13.8701L18.5067 10.2534C18.2827 10.0294 17.9193 10.0294 17.6951 10.2534L15.4901 12.4584L10.4344 7.40263C10.2103 7.17868 9.84687 7.17858 9.62272 7.40263L3.87581 13.149L3.87576 4.1539ZM3.87576 15.6911V14.7722L10.0285 8.62006L17.0995 15.6911H3.87576ZM22.1239 15.6911H18.7229L16.3019 13.27L18.101 11.4709L21.992 15.3613C22.032 15.4013 22.0766 15.4339 22.1238 15.4596L22.1239 15.6911Z" fill="white"/>
<path d="M15.4546 5.24288C14.2582 5.24288 13.2848 6.21625 13.2848 7.41271C13.2848 8.60917 14.2582 9.58254 15.4546 9.58254C16.6511 9.58254 17.6245 8.60917 17.6245 7.41271C17.6245 6.21625 16.651 5.24288 15.4546 5.24288ZM15.4546 8.43468C14.8911 8.43468 14.4327 7.97628 14.4327 7.41271C14.4327 6.84919 14.8911 6.39079 15.4546 6.39079C16.0181 6.39079 16.4766 6.84919 16.4766 7.41271C16.4766 7.97628 16.0182 8.43468 15.4546 8.43468Z" fill="white"/>
<path d="M8.29403 18.1326H3.30183C2.9849 18.1326 2.7279 18.3896 2.7279 18.7066C2.7279 19.0235 2.9849 19.2805 3.30183 19.2805H8.29403C8.61101 19.2805 8.86796 19.0235 8.86796 18.7066C8.86796 18.3896 8.61101 18.1326 8.29403 18.1326Z" fill="white"/>
<path d="M12.223 18.1326H10.9136C10.5967 18.1326 10.3397 18.3896 10.3397 18.7066C10.3397 19.0235 10.5967 19.2805 10.9136 19.2805H12.223C12.54 19.2805 12.797 19.0235 12.797 18.7066C12.797 18.3896 12.54 18.1326 12.223 18.1326Z" fill="white"/>
</svg>
