<svg width="16" height="28" viewBox="0 0 16 28" fill="none" xmlns="http://www.w3.org/2000/svg">
<path d="M14.568 0.00582587L10.9371 0C6.85785 0 4.22167 2.70466 4.22167 6.89084V10.068H0.57093C0.255462 10.068 0 10.3237 0 10.6392V15.2425C0 15.558 0.255753 15.8134 0.57093 15.8134H4.22167V27.4291C4.22167 27.7445 4.47713 28 4.7926 28H9.55578C9.87125 28 10.1267 27.7442 10.1267 27.4291V15.8134H14.3953C14.7108 15.8134 14.9662 15.558 14.9662 15.2425L14.968 10.6392C14.968 10.4877 14.9077 10.3427 14.8008 10.2355C14.6939 10.1283 14.5482 10.068 14.3967 10.068H10.1267V7.37468C10.1267 6.08017 10.4352 5.42301 12.1215 5.42301L14.5674 5.42214C14.8826 5.42214 15.1381 5.16638 15.1381 4.8512V0.576761C15.1381 0.261873 14.8829 0.00640846 14.568 0.00582587Z" fill="#FF9635"/>
</svg>
