<svg width="22" height="31" viewBox="0 0 22 31" fill="none" xmlns="http://www.w3.org/2000/svg">
<path d="M10.8424 0C6.56838 0 3.09256 3.47582 3.09256 7.74988C3.09256 12.0239 6.56838 15.4998 10.8424 15.4998C15.1165 15.4998 18.5923 12.0239 18.5923 7.74988C18.5923 3.47582 15.1165 0 10.8424 0ZM10.8424 11.6248C8.70541 11.6248 6.96749 9.88691 6.96749 7.74988C6.96749 5.61285 8.70541 3.87494 10.8424 3.87494C12.9795 3.87494 14.7174 5.61285 14.7174 7.74988C14.7174 9.88691 12.9795 11.6248 10.8424 11.6248Z" fill="#FF9635"/>
<path d="M21.1189 15.2847C20.3614 14.5272 19.1369 14.5272 18.3793 15.2847C14.2254 19.4387 7.46362 19.4387 3.30774 15.2847C2.55019 14.5272 1.32571 14.5272 0.568163 15.2847C-0.189388 16.0423 -0.189388 17.2668 0.568163 18.0262C2.97837 20.4365 6.03376 21.8101 9.18409 22.1686L3.66036 27.6923C2.90281 28.4498 2.90281 29.6743 3.66036 30.4319C4.41792 31.1894 5.6424 31.1894 6.39995 30.4319L10.8426 25.9892L15.2852 30.4319C15.663 30.8097 16.159 30.9995 16.655 30.9995C17.151 30.9995 17.647 30.8097 18.0248 30.4319C18.7823 29.6743 18.7823 28.4498 18.0248 27.6923L12.501 22.1686C15.6514 21.8101 18.7068 20.4365 21.117 18.0262C21.8745 17.2687 21.8745 16.0423 21.1189 15.2847Z" fill="#FF9635"/>
</svg>
