<svg width="28" height="17" viewBox="0 0 28 17" fill="none" xmlns="http://www.w3.org/2000/svg">
<path d="M27.8515 15.3529C27.8176 15.2751 27.786 15.2106 27.7566 15.1589C27.2708 14.2279 26.3425 13.0851 24.9722 11.7302L24.9432 11.6991L24.9287 11.6839L24.914 11.6683H24.8993C24.2774 11.0374 23.8836 10.6132 23.7186 10.396C23.4169 9.98232 23.3493 9.56354 23.5142 9.13923C23.6307 8.81864 24.0684 8.1416 24.8263 7.10719C25.2249 6.55898 25.5406 6.11962 25.7738 5.7886C27.4553 3.40973 28.1843 1.8896 27.9606 1.22761L27.8738 1.07292C27.8154 0.979782 27.6648 0.894582 27.4221 0.81688C27.1788 0.739341 26.8679 0.726518 26.4888 0.778193L22.2903 0.809056C22.2223 0.783409 22.1252 0.785799 21.9986 0.81688C21.8723 0.847961 21.809 0.863556 21.809 0.863556L21.736 0.902407L21.678 0.949082C21.6294 0.979945 21.5759 1.03423 21.5175 1.11182C21.4595 1.18914 21.4109 1.27988 21.3721 1.38329C20.915 2.63472 20.3953 3.79824 19.812 4.87378C19.4524 5.51512 19.1221 6.07093 18.8205 6.54154C18.5193 7.01199 18.2666 7.35861 18.0627 7.58079C17.8584 7.80319 17.6741 7.98136 17.5086 8.11595C17.3433 8.2506 17.2171 8.30749 17.1297 8.28668C17.0422 8.26587 16.9597 8.24522 16.8816 8.22457C16.7456 8.13144 16.6363 8.00478 16.5538 7.84449C16.471 7.68419 16.4152 7.48244 16.3861 7.23939C16.3571 6.99618 16.3399 6.78698 16.335 6.61109C16.3305 6.43542 16.3326 6.18694 16.3424 5.86635C16.3525 5.5456 16.3571 5.32858 16.3571 5.2148C16.3571 4.82173 16.3643 4.39513 16.3787 3.93489C16.3934 3.47466 16.4053 3.11 16.4153 2.84136C16.4252 2.57245 16.4298 2.28794 16.4298 1.988C16.4298 1.68806 16.4126 1.45284 16.3787 1.28211C16.3452 1.1116 16.2938 0.946093 16.226 0.785637C16.1579 0.625343 16.0581 0.501346 15.9272 0.41332C15.796 0.325403 15.6329 0.255635 15.4388 0.203797C14.9237 0.0797461 14.2677 0.0126401 13.4706 0.00220737C11.6629 -0.0184406 10.5014 0.105773 9.98634 0.374687C9.78225 0.488305 9.59756 0.643545 9.43242 0.839919C9.25744 1.06754 9.23303 1.19175 9.35935 1.21218C9.94258 1.30515 10.3555 1.52755 10.5985 1.87917L10.686 2.06549C10.7541 2.19992 10.8222 2.43791 10.8902 2.77915C10.9582 3.12038 11.0021 3.49786 11.0214 3.91137C11.0699 4.66649 11.0699 5.31288 11.0214 5.8506C10.9727 6.38853 10.9267 6.8073 10.8829 7.10724C10.839 7.40718 10.7734 7.65023 10.686 7.83634C10.5985 8.02249 10.5402 8.13628 10.511 8.17757C10.4818 8.21887 10.4575 8.2449 10.4382 8.25511C10.3119 8.30662 10.1805 8.33287 10.0445 8.33287C9.90837 8.33287 9.74323 8.26038 9.54889 8.11552C9.35461 7.97066 9.15296 7.77168 8.94397 7.51825C8.73498 7.26477 8.49928 6.91055 8.23677 6.45553C7.97447 6.00051 7.70231 5.46274 7.42045 4.84221L7.18725 4.39219C7.04147 4.10269 6.84233 3.68114 6.58963 3.12794C6.33677 2.57452 6.11328 2.03919 5.91899 1.52206C5.84132 1.30488 5.72465 1.13953 5.56917 1.02575L5.4962 0.979076C5.44769 0.93778 5.36982 0.89393 5.263 0.8472C5.15603 0.800525 5.04441 0.767053 4.92768 0.746459L0.933199 0.777323C0.525014 0.777323 0.248056 0.875727 0.102225 1.07226L0.0438618 1.16523C0.0147057 1.21702 0 1.29972 0 1.41355C0 1.52734 0.0291561 1.66698 0.0875193 1.83233C0.670641 3.29073 1.30477 4.69724 1.98991 6.05208C2.67506 7.40691 3.27043 8.49827 3.77569 9.32517C4.28104 10.1527 4.79615 10.9336 5.32101 11.6677C5.84587 12.4021 6.19329 12.8727 6.36327 13.0795C6.53346 13.2866 6.66714 13.4415 6.76431 13.5449L7.12884 13.9171C7.36209 14.1654 7.70461 14.4627 8.15655 14.8091C8.6086 15.1557 9.10905 15.497 9.65817 15.8334C10.2074 16.1692 10.8463 16.4433 11.5753 16.6553C12.3042 16.8675 13.0137 16.9526 13.7038 16.9115H15.3803C15.7203 16.8803 15.9779 16.7665 16.153 16.5701L16.211 16.4924C16.25 16.4306 16.2866 16.3347 16.3203 16.2057C16.3544 16.0764 16.3713 15.934 16.3713 15.7791C16.3614 15.3344 16.3932 14.9337 16.4659 14.5769C16.5385 14.2203 16.6214 13.9514 16.714 13.7703C16.8066 13.5893 16.911 13.4366 17.0273 13.3128C17.1438 13.1888 17.2268 13.1136 17.2756 13.0878C17.324 13.0618 17.3626 13.0441 17.3918 13.0335C17.625 12.9508 17.8995 13.0309 18.2157 13.2742C18.5316 13.5172 18.8279 13.8173 19.1051 14.174C19.3821 14.531 19.7149 14.9315 20.1036 15.3761C20.4925 15.8209 20.8326 16.1516 21.1241 16.3691L21.4155 16.5552C21.6102 16.6794 21.8629 16.7932 22.1739 16.8966C22.4844 17 22.7565 17.0258 22.9901 16.9742L26.722 16.9122C27.0911 16.9122 27.3784 16.8472 27.5821 16.7181C27.7862 16.5889 27.9075 16.4465 27.9466 16.2915C27.9856 16.1365 27.9877 15.9605 27.954 15.7638C27.9195 15.5676 27.8854 15.4304 27.8515 15.3529Z" fill="#FF9635"/>
</svg>
