<svg width="24" height="20" viewBox="0 0 24 20" fill="none" xmlns="http://www.w3.org/2000/svg">
<path d="M1.34907 11.9149L1.31161 11.9067L17.3713 11.9067L12.3227 16.9664C12.0755 17.2135 11.9399 17.5481 11.9399 17.8993C11.9399 18.2505 12.0755 18.5828 12.3227 18.8304L13.1083 19.6164C13.3553 19.8634 13.6845 20 14.0355 20C14.3867 20 14.7161 19.8644 14.9631 19.6174L23.6174 10.9639C23.8654 10.7159 24.001 10.3856 24 10.0341C24.001 9.68078 23.8654 9.35025 23.6174 9.10264L14.9631 0.448395C14.7161 0.201566 14.3869 0.0657616 14.0355 0.0657616C13.6845 0.0657616 13.3553 0.201761 13.1083 0.448395L12.3227 1.23435C12.0755 1.48098 11.9399 1.81035 11.9399 2.16157C11.9399 2.51259 12.0755 2.82459 12.3227 3.07142L17.4283 8.15942L1.33112 8.15942C0.607805 8.15942 0 8.78283 0 9.50576V10.6174C0 11.3403 0.625757 11.9149 1.34907 11.9149Z" fill="#515151"/>
</svg>
