<svg width="30" height="42" viewBox="0 0 30 42" fill="none" xmlns="http://www.w3.org/2000/svg">
<path d="M15 0C6.72896 0 0 6.72895 0 14.9999C0 25.2644 13.4235 40.3334 13.995 40.9698C14.5319 41.5677 15.4691 41.5667 16.005 40.9698C16.5765 40.3334 30 25.2644 30 14.9999C29.9998 6.72895 23.271 0 15 0ZM15 22.5468C10.8386 22.5468 7.4532 19.1613 7.4532 14.9999C7.4532 10.8386 10.8387 7.45312 15 7.45312C19.1613 7.45312 22.5467 10.8386 22.5467 15C22.5467 19.1614 19.1613 22.5468 15 22.5468Z" fill="#FCA53F"/>
</svg>
