<svg width="30" height="21" viewBox="0 0 30 21" fill="none" xmlns="http://www.w3.org/2000/svg">
<path d="M2.37247 1.24062L13.1784 9.80005C13.6684 10.1877 14.3436 10.3601 14.9995 10.3277C15.6542 10.3601 16.3295 10.1888 16.8195 9.80005L27.6254 1.24062C28.4912 0.558926 28.2952 0 27.1968 0H2.80432C1.70478 0 1.50878 0.558926 2.37247 1.24062Z" fill="#FCA53F"/>
<path d="M28.4061 3.49894L16.5976 12.4644C16.1561 12.7961 15.5778 12.9576 15.0016 12.9501C14.4244 12.9576 13.8461 12.795 13.4045 12.4644L1.59385 3.49894C0.717234 2.83448 0 3.19094 0 4.29048V19.0003C0 20.0998 0.900312 21.0001 1.99986 21.0001H28.0001C29.0997 21.0001 30 20.0998 30 19.0003V4.29048C30 3.19094 29.2828 2.83448 28.4061 3.49894Z" fill="#FCA53F"/>
</svg>
