<svg width="30" height="30" viewBox="0 0 30 30" fill="none" xmlns="http://www.w3.org/2000/svg">
<path d="M28.5731 16.9602C28.6574 16.342 28.7043 15.7124 28.7043 15.0732C28.7043 7.39589 22.5337 1.16989 14.925 1.16989C14.1693 1.16989 13.4269 1.23265 12.7068 1.35248C11.4131 0.496464 9.87368 0 8.21811 0C3.67684 6.25742e-05 0 3.73599 0 8.34126C0 10.0171 0.485595 11.575 1.32374 12.8819C1.21124 13.5971 1.15314 14.3276 1.15314 15.0732C1.15314 22.7525 7.31809 28.9766 14.9269 28.9766C15.7856 28.9766 16.6219 28.891 17.4337 28.7426C18.6956 29.5378 20.1862 30 21.7781 30C26.3212 30 30 26.2659 30 21.6587C30.0018 19.9182 29.4786 18.2975 28.5731 16.9602ZM16.2168 25.3186C11.8387 25.5507 9.79122 24.5654 7.91434 22.7811C5.81807 20.7856 6.65998 18.5106 8.36811 18.3946C10.0744 18.2785 11.0981 20.3558 12.0094 20.934C12.9187 21.5104 16.38 22.8229 18.2081 20.7019C20.1993 18.3945 16.8844 17.2 14.4544 16.8385C10.9856 16.3192 6.60564 14.4151 6.94691 10.662C7.28818 6.91463 10.0857 4.9896 13.0312 4.71947C16.785 4.37325 19.23 5.29584 21.1631 6.96982C23.3981 8.90437 22.1887 11.0653 20.7656 11.2384C19.3443 11.4115 17.7543 8.05786 14.625 8.00843C11.4 7.95706 9.22125 11.4134 13.2019 12.3949C17.1843 13.3765 21.4462 13.7798 22.9855 17.472C24.5231 21.1642 20.5968 25.0865 16.2168 25.3186Z" fill="#FCA53F"/>
</svg>
