<svg width="30" height="30" viewBox="0 0 30 30" fill="none" xmlns="http://www.w3.org/2000/svg">
<path d="M29.3275 23.7286L24.6944 19.0845C23.7716 18.1633 22.2434 18.1913 21.2884 19.1488L18.9543 21.4877C18.8068 21.4062 18.6542 21.3211 18.4937 21.2309C17.0197 20.4123 15.0023 19.2904 12.8794 17.1611C10.7503 15.0273 9.62981 13.0023 8.81059 11.524C8.72414 11.3674 8.64132 11.2164 8.55953 11.073L10.1261 9.50521L10.8963 8.73234C11.8527 7.77349 11.8791 6.24226 10.9584 5.31839L6.32536 0.673824C5.4047 -0.248748 3.87582 -0.22076 2.91939 0.738094L1.61364 2.05431L1.64932 2.08982C1.21149 2.64975 0.84562 3.29556 0.573352 3.99198C0.322373 4.65488 0.166114 5.28747 0.0946643 5.92135C-0.517098 11.0045 1.8005 15.6501 8.09015 21.9541C16.7844 30.6674 23.7907 30.0091 24.093 29.977C24.7513 29.8981 25.3822 29.7405 26.0234 29.4909C26.7122 29.2212 27.3561 28.8551 27.9144 28.4172L27.9429 28.4426L29.2657 27.1443C30.2202 26.1856 30.2477 24.6539 29.3275 23.7286Z" fill="#FCA53F"/>
</svg>
