<svg width="30" height="30" viewBox="0 0 30 30" fill="none" xmlns="http://www.w3.org/2000/svg">
<path d="M15 0C6.729 0 0 6.729 0 15C0 23.271 6.729 30 15 30C23.271 30 30 23.271 30 15C30 6.729 23.271 0 15 0ZM15 26.8083C8.48899 26.8083 3.19144 21.5113 3.19144 15C3.19144 8.48868 8.48899 3.19175 15 3.19175C21.511 3.19175 26.8086 8.48868 26.8086 15C26.8086 21.5113 21.511 26.8083 15 26.8083Z" fill="#FCA53F"/>
<path d="M22.8174 14.5368H16.0764V6.43166C16.0764 5.74959 15.5234 5.19658 14.8413 5.19658C14.1592 5.19658 13.6062 5.74959 13.6062 6.43166V15.7719C13.6062 16.454 14.1592 17.007 14.8413 17.007H22.8174C23.4995 17.007 24.0525 16.454 24.0525 15.7719C24.0525 15.0899 23.4995 14.5368 22.8174 14.5368Z" fill="#FCA53F"/>
</svg>
