<svg width="30" height="18" viewBox="0 0 30 18" fill="none" xmlns="http://www.w3.org/2000/svg">
<path d="M29.8409 15.4579C29.8046 15.3796 29.7707 15.3147 29.7393 15.2627C29.2188 14.3252 28.2241 13.1746 26.7559 11.8104L26.7249 11.7792L26.7093 11.7639L26.6936 11.7482H26.6779C26.0115 11.113 25.5895 10.6858 25.4128 10.4672C25.0895 10.0506 25.0171 9.62898 25.1938 9.20176C25.3186 8.87898 25.7876 8.19731 26.5996 7.15582C27.0267 6.60386 27.3649 6.16149 27.6147 5.8282C29.4164 3.43306 30.1974 1.90253 29.9578 1.23601L29.8648 1.08026C29.8022 0.986486 29.6408 0.900703 29.3808 0.822469C29.1202 0.7444 28.787 0.731489 28.3808 0.783517L23.8825 0.814591C23.8096 0.788769 23.7055 0.791176 23.57 0.822469C23.4346 0.853763 23.3668 0.869465 23.3668 0.869465L23.2885 0.908581L23.2264 0.955575C23.1743 0.98665 23.117 1.0413 23.0545 1.11943C22.9923 1.19728 22.9403 1.28864 22.8987 1.39275C22.4089 2.65275 21.8521 3.82422 21.2272 4.90713C20.8419 5.55285 20.488 6.11247 20.1648 6.5863C19.8421 7.05997 19.5714 7.40896 19.3529 7.63266C19.134 7.85658 18.9365 8.03597 18.7592 8.17148C18.5821 8.30705 18.4469 8.36433 18.3533 8.34338C18.2595 8.32243 18.1711 8.30164 18.0875 8.28085C17.9418 8.18708 17.8246 8.05955 17.7362 7.89816C17.6475 7.73677 17.5877 7.53364 17.5565 7.28892C17.5254 7.04405 17.507 6.83342 17.5018 6.65633C17.4969 6.47946 17.4992 6.22927 17.5097 5.90649C17.5206 5.58355 17.5254 5.36504 17.5254 5.25048C17.5254 4.85472 17.5331 4.4252 17.5486 3.96182C17.5644 3.49843 17.5771 3.13128 17.5878 2.8608C17.5984 2.59005 17.6033 2.3036 17.6033 2.00161C17.6033 1.69961 17.585 1.46278 17.5486 1.29088C17.5127 1.11921 17.4576 0.952567 17.385 0.791012C17.312 0.629621 17.2051 0.504776 17.0648 0.416148C16.9243 0.32763 16.7496 0.257384 16.5416 0.205192C15.9896 0.0802917 15.2868 0.0127265 14.4327 0.00222247C12.496 -0.0185668 11.2515 0.106497 10.6996 0.37725C10.481 0.491646 10.2831 0.647948 10.1062 0.845666C9.91868 1.07484 9.89253 1.1999 10.0279 1.22048C10.6528 1.31408 11.0951 1.538 11.3555 1.89202L11.4493 2.07962C11.5223 2.21497 11.5952 2.45459 11.6681 2.79816C11.7409 3.14173 11.7879 3.5218 11.8086 3.93813C11.8606 4.69841 11.8606 5.34923 11.8086 5.89063C11.7565 6.43224 11.7072 6.85388 11.6602 7.15587C11.6132 7.45786 11.543 7.70258 11.4493 7.88995C11.3555 8.07739 11.2931 8.19195 11.2618 8.23352C11.2305 8.2751 11.2045 8.30131 11.1838 8.31159C11.0485 8.36346 10.9077 8.38988 10.762 8.38988C10.6161 8.38988 10.4392 8.3169 10.231 8.17105C10.0228 8.02519 9.80675 7.82485 9.58282 7.56969C9.3589 7.31447 9.10637 6.95783 8.82511 6.4997C8.54407 6.04157 8.25247 5.50012 7.95048 4.87534L7.70063 4.42225C7.54444 4.13076 7.33107 3.70633 7.06032 3.14934C6.7894 2.59213 6.54994 2.05314 6.34177 1.53248C6.25856 1.31381 6.13355 1.14733 5.96696 1.03277L5.88879 0.985775C5.83681 0.944196 5.75338 0.900046 5.63893 0.852997C5.52432 0.806002 5.40472 0.772301 5.27966 0.751567L0.999856 0.782642C0.562514 0.782642 0.265775 0.881719 0.109527 1.0796L0.0469947 1.17321C0.0157561 1.22534 0 1.30861 0 1.42323C0 1.53779 0.0312386 1.67839 0.0937707 1.84486C0.718544 3.31325 1.39797 4.72938 2.13205 6.09349C2.86613 7.45759 3.50404 8.55641 4.04538 9.38897C4.58683 10.2221 5.13873 11.0085 5.70108 11.7476C6.26343 12.487 6.63567 12.9608 6.81779 13.169C7.00014 13.3775 7.14337 13.5334 7.24748 13.6375L7.63804 14.0123C7.88795 14.2623 8.25494 14.5617 8.73916 14.9104C9.2235 15.2594 9.7597 15.603 10.348 15.9417C10.9365 16.2799 11.6211 16.5558 12.4021 16.7692C13.1831 16.9829 13.9432 17.0686 14.6826 17.0272H16.4789C16.8432 16.9958 17.1192 16.8812 17.3068 16.6835L17.369 16.6052C17.4108 16.5431 17.4499 16.4465 17.486 16.3166C17.5225 16.1864 17.5407 16.043 17.5407 15.887C17.53 15.4394 17.5641 15.0359 17.642 14.6767C17.7199 14.3176 17.8086 14.0468 17.9078 13.8645C18.007 13.6823 18.119 13.5286 18.2435 13.4039C18.3684 13.279 18.4573 13.2034 18.5095 13.1773C18.5614 13.1511 18.6028 13.1333 18.634 13.1227C18.884 13.0394 19.1781 13.12 19.5168 13.365C19.8553 13.6097 20.1728 13.9118 20.4697 14.271C20.7665 14.6304 21.1231 15.0336 21.5396 15.4813C21.9563 15.9292 22.3206 16.2621 22.6329 16.4811L22.9452 16.6685C23.1537 16.7936 23.4245 16.9081 23.7578 17.0122C24.0905 17.1163 24.382 17.1423 24.6322 17.0903L28.6307 17.0279C29.0262 17.0279 29.334 16.9625 29.5523 16.8325C29.771 16.7024 29.9009 16.559 29.9428 16.403C29.9846 16.2469 29.9869 16.0697 29.9508 15.8717C29.9137 15.6741 29.8772 15.536 29.8409 15.4579Z" fill="#FCA53F"/>
</svg>
