<svg width="30" height="31" viewBox="0 0 30 31" fill="none" xmlns="http://www.w3.org/2000/svg">
<path d="M15.0037 0H14.9963C6.72563 0 0 6.90454 0 15.3947C0 18.7623 1.0575 21.8836 2.85562 24.418L0.98625 30.1371L6.75187 28.2455C9.12375 29.8581 11.9531 30.7895 15.0037 30.7895C23.2744 30.7895 30 23.883 30 15.3947C30 6.90646 23.2744 0 15.0037 0ZM23.7319 21.7393C23.37 22.7881 21.9337 23.6579 20.7881 23.9119C20.0044 24.0831 18.9806 24.2198 15.5344 22.7534C11.1262 20.8791 8.2875 16.2819 8.06625 15.9836C7.85437 15.6853 6.285 13.5493 6.285 11.3401C6.285 9.131 7.37813 8.0553 7.81875 7.59345C8.18062 7.21436 8.77875 7.04117 9.3525 7.04117C9.53813 7.04117 9.705 7.05079 9.855 7.05849C10.2956 7.07773 10.5169 7.10467 10.8075 7.8186C11.1694 8.71342 12.0506 10.9226 12.1556 11.1496C12.2625 11.3767 12.3694 11.6846 12.2194 11.9829C12.0788 12.2908 11.955 12.4274 11.7337 12.6891C11.5125 12.9508 11.3025 13.151 11.0812 13.4319C10.8787 13.6763 10.65 13.938 10.905 14.3902C11.16 14.8328 12.0413 16.3088 13.3387 17.4942C15.0131 19.024 16.3706 19.5128 16.8562 19.7207C17.2181 19.8746 17.6494 19.838 17.9137 19.5494C18.2494 19.178 18.6637 18.5622 19.0856 17.956C19.3856 17.5211 19.7644 17.4673 20.1619 17.6212C20.5669 17.7655 22.71 18.8528 23.1506 19.0779C23.5912 19.305 23.8819 19.4128 23.9887 19.6033C24.0937 19.7938 24.0938 20.6886 23.7319 21.7393Z" fill="#FCA53F"/>
</svg>
