<?xml version="1.0" encoding="utf-8"?>
<!-- Generator: Adobe Illustrator 24.0.1, SVG Export Plug-In . SVG Version: 6.00 Build 0)  -->
<svg version="1.1" id="Слой_1" xmlns="http://www.w3.org/2000/svg" xmlns:xlink="http://www.w3.org/1999/xlink" x="0px" y="0px"
	 viewBox="0 0 1920 978.4" style="enable-background:new 0 0 1920 978.4;" xml:space="preserve">
<style type="text/css">
	.st0{fill:#FFE176;}
	.st1{fill:#FFECAA;}
	.st2{fill:#FFC035;}
	.st3{fill:none;stroke:#FFC035;stroke-width:15;}
	.st4{fill:none;stroke:#FFC035;stroke-width:10;}
	.st5{fill:none;stroke:#FFC035;stroke-width:18.9992;stroke-miterlimit:3.9998;}
</style>
<path class="st0" d="M875.5,185C762.7,185,244.8,106.8,0,69.1v840.8c201.5-70.6,292.3-37.8,393.5-29.9
	c126.5,9.8,328,102.7,842.5,29.9s278.5-19.6,686.5,22V61.1c0.5-0.7-57.7,2.6-294.5,22.4C1332,108.3,1192.5,185,875.5,185z"/>
<path class="st1" d="M512.9,861.9c-287.8-76.4-473.8-2.5-530.9,44v22c99.8-53.5,236.2-63.6,358.3-41.5
	c610.8,110.5,592.2,61,1022.7,19.5c344.4-33.2,539.1,33.5,593.4,71l22.6-58.5c-120.9-85.5-410-113-659-56.5
	C1070.9,918.4,872.6,957.4,512.9,861.9z"/>
<g>
	<path class="st2" d="M80.2,638.6l-17.8,12.3l62.2,90.3l17.8-12.3L80.2,638.6z"/>
	<path class="st2" d="M154.2,667.3l-12.3-17.8l-90.3,62.2l12.3,17.8L154.2,667.3z"/>
</g>
<g>
	<path class="st2" d="M1762.4,865.9l-20.6,6.7l34,104.3l20.6-6.7L1762.4,865.9z"/>
	<path class="st2" d="M1825.3,914.5l-6.7-20.6l-104.3,34l6.7,20.6L1825.3,914.5z"/>
</g>
<circle class="st3" cx="348.6" cy="884.9" r="31"/>
<circle class="st4" cx="1427.3" cy="772.5" r="21.8"/>
<rect x="1874.7" y="543.3" transform="matrix(0.7741 -0.633 0.633 0.7741 67.2189 1335.3879)" class="st5" width="60.5" height="60.5"/>
<path class="st1" d="M628.3,176.5c-125-15.4-132.5-42.4-635-83.5V36c99.8,48.4,581.5,124.5,859.5,120.5c256-3.6,504.5-78.9,596-96.5
	c315-60.5,423.7-26.1,478-60v60c0,0-211,17.5-468.5,52.5C1287.4,135.7,1018.3,224.5,628.3,176.5z"/>
</svg>
