<svg id="Слой_1" data-name="Слой 1" xmlns="http://www.w3.org/2000/svg" viewBox="0 0 1920 520"><defs><style>.cls-1,.cls-4{fill:none;stroke:#ffc035;}.cls-1{stroke-width:19px;}.cls-2{fill:#ffedc5;}.cls-3{fill:#ffc035;}.cls-4{stroke-opacity:0.05;stroke-width:15px;}</style></defs><title>contacts-bg</title><rect class="cls-1" x="1861.49" y="88.93" width="60.46" height="60.46" transform="translate(351.86 1224.44) rotate(-39.27)"/><path class="cls-2" d="M1671.69,369l9.88-2.21,11.22,50.07-9.89,2.21Z"/><path class="cls-2" d="M1658,403.59l-2.21-9.89,50.07-11.22,2.21,9.89Z"/><path class="cls-3" d="M58.16,251.09l-16.85,5.82,29.44,85.36,16.86-5.82Z"/><path class="cls-3" d="M110.59,290.2l-5.82-16.85L19.41,302.79l5.82,16.85Z"/><circle class="cls-4" cx="204.4" cy="418.96" r="31"/><circle class="cls-4" cx="1558.38" cy="149.98" r="25.98"/><path class="cls-2" d="M183.41,110.51l9.88-2.21,11.22,50.07-9.89,2.21Z"/><path class="cls-2" d="M169.71,145.07l-2.21-9.89L217.57,124l2.21,9.89Z"/></svg>