<?xml version="1.0" encoding="utf-8"?>
<!-- Generator: Adobe Illustrator 24.0.1, SVG Export Plug-In . SVG Version: 6.00 Build 0)  -->
<svg version="1.1" id="Слой_1" xmlns="http://www.w3.org/2000/svg" xmlns:xlink="http://www.w3.org/1999/xlink" x="0px" y="0px"
	 viewBox="0 0 1920 700" style="enable-background:new 0 0 1920 700;" xml:space="preserve">
<style type="text/css">
	.st0{fill:none;stroke:#FFE5A9;stroke-width:2;stroke-opacity:0.5;}
	.st1{fill:#FFEDC5;}
</style>
<g>
	<path class="st0" d="M229.3,962c121.7,83,233.2,11.2,282.9-55.6c17.9-18.6,58.4-151.8,59-183.5c1.1-60.7,31.2-194.3-51.9-278.9
		C376.4,298.5,84,298.1,23.4,319.9c-62.8,22.6-164.9,102.7-113.6,247.8C-54.3,669.4,77.3,858.2,229.3,962z"/>
	<path class="st0" d="M258,829.8c69.4,47.4,133,6.4,161.3-31.7c10.2-10.6,33.3-86.6,33.7-104.7c0.6-34.6,17.8-110.8-29.6-159.1
		c-81.5-82.9-248.3-83.1-282.9-70.7c-35.8,12.9-94.1,58.6-64.8,141.3C96.2,663,171.3,770.6,258,829.8z"/>
</g>
<g>
	<path class="st1" d="M176.4,90.2l12-2.7l13.6,60.8l-12,2.7L176.4,90.2z"/>
	<path class="st1" d="M159.7,132.2l-2.7-12l60.8-13.6l2.7,12L159.7,132.2z"/>
</g>
<g>
	<path class="st1" d="M1780.5,394.4l12-2.7l13.6,60.8l-12,2.7L1780.5,394.4z"/>
	<path class="st1" d="M1763.9,436.3l-2.7-12l60.8-13.6l2.7,12L1763.9,436.3z"/>
</g>
</svg>
