<?xml version="1.0" encoding="utf-8"?>
<!-- Generator: Adobe Illustrator 24.0.1, SVG Export Plug-In . SVG Version: 6.00 Build 0)  -->
<svg version="1.1" id="Слой_1" xmlns="http://www.w3.org/2000/svg" xmlns:xlink="http://www.w3.org/1999/xlink" x="0px" y="0px"
	 viewBox="0 0 1920 751" style="enable-background:new 0 0 1920 751;" xml:space="preserve">
<style type="text/css">
	.st0{fill:#FFECAA;}
	.st1{fill:#FFE176;}
	.st2{fill:none;stroke:#FFEDC5;stroke-width:7;}
	.st3{fill:none;stroke:#FFEDC5;stroke-width:11.9995;stroke-miterlimit:3.9998;}
	.st4{fill:#FFEDC5;}
</style>
<path class="st0" d="M0.3,211.5V0c50.4,15.3,175.3,52.6,272.2,79c121.1,33,182,35,250.8,43.5s157,4.5,209.9,3
	c42.3-1.2,123.3-17.5,158.5-25.5c76.3-17.8,243-56.5,299.6-68.5s109-17.3,128.1-18.5c13.5,0,46.1,0.6,68.8,3
	c28.4,3,116.7,22,140.6,27c19.2,4,148.9,41.7,211.4,60l51.8,16.5l64.3,19.5l63.8,20v52.5H0.3z"/>
<path class="st1" d="M1920.3,751H0V67c65,18.3,200.1,57,228.8,65c35.9,10.1,189.9,36.3,229.8,41.3s145.1,4.5,206.9,2.5
	c49.5-1.6,131.6-21.8,166.5-31.8c38-11.9,123.1-38.7,159-50.4c44.9-14.6,144.6-40.8,201.9-53.9s93.2-9.1,146.1-4.5
	c42.3,3.6,168.2,34.8,225.8,49.9l200.9,57l154.5,43.4L1920.3,751L1920.3,751z"/>
<circle class="st2" cx="764.5" cy="211.5" r="11"/>
<circle class="st2" cx="1726.8" cy="304.2" r="11"/>
<circle class="st2" cx="680" cy="291" r="14.5"/>
<circle class="st2" cx="1147.5" cy="478.6" r="14.5"/>
<circle class="st2" cx="1505.8" cy="237" r="14.5"/>
<circle class="st2" cx="335.3" cy="441.5" r="11"/>
<circle class="st2" cx="178.5" cy="601.8" r="14.2"/>
<rect x="989.5" y="243.3" transform="matrix(0.6853 -0.7282 0.7282 0.6853 127.9854 812.8134)" class="st3" width="30.1" height="30.1"/>
<g>
	<path class="st4" d="M1806.5,426.5l9.6,3.3l-16.8,48.8l-9.6-3.3L1806.5,426.5z"/>
	<path class="st4" d="M1776.6,448.9l3.3-9.6l48.8,16.8l-3.3,9.6L1776.6,448.9z"/>
</g>
</svg>
