<?xml version="1.0" encoding="utf-8"?>
<!-- Generator: Adobe Illustrator 24.0.1, SVG Export Plug-In . SVG Version: 6.00 Build 0)  -->
<svg version="1.1" id="Слой_1" xmlns="http://www.w3.org/2000/svg" xmlns:xlink="http://www.w3.org/1999/xlink" x="0px" y="0px"
	 viewBox="0 0 1920 884" style="enable-background:new 0 0 1920 884;" xml:space="preserve">
<style type="text/css">
	.st0{fill:url(#SVGID_1_);}
	.st1{fill:#FFC035;}
	.st2{fill:none;stroke:#FFEDC5;stroke-width:11.999;stroke-miterlimit:3.9996;}
	.st3{fill:none;stroke:#FFEDC5;stroke-width:8;}
	.st4{fill:#FFEDC5;}
	.st5{fill:none;stroke:#FFC035;stroke-width:18.9984;stroke-miterlimit:3.9996;}
</style>
<radialGradient id="SVGID_1_" cx="0.129" cy="943.0005" r="0.9997" gradientTransform="matrix(2.706469e-14 442 960.5 -5.881366e-14 -904792 385)" gradientUnits="userSpaceOnUse">
	<stop  offset="0" style="stop-color:#FFD368"/>
	<stop  offset="0.9844" style="stop-color:#FFB72C"/>
</radialGradient>
<path class="st0" d="M0,867.5V0h1920v884c-12.7-3.1-74.3-18.7-219.5-56c-181.5-46.6-538-21.3-833,0C641.9,844.3,277.8,866,0,867.5z"
	/>
<g>
	<path class="st1" d="M76.5,599.7L58.7,612l62.2,90.3l17.8-12.3L76.5,599.7z"/>
	<path class="st1" d="M150.6,628.4l-12.3-17.8L48,672.8l12.3,17.8L150.6,628.4z"/>
</g>
<g>
	<path class="st1" d="M1691.2,768.2l-17.8,12.3l62.2,90.3l17.8-12.3L1691.2,768.2z"/>
	<path class="st1" d="M1765.3,796.9l-12.3-17.8l-90.3,62.2l12.3,17.8L1765.3,796.9z"/>
</g>
<rect x="583.3" y="679.7" transform="matrix(0.6853 -0.7282 0.7282 0.6853 -317.6319 654.3252)" class="st2" width="30.1" height="30.1"/>
<ellipse class="st3" cx="1652.7" cy="415.8" rx="16.4" ry="17.3"/>
<circle class="st3" cx="181.1" cy="410.5" r="12"/>
<g>
	<path class="st4" d="M1729.8,512.2l9.9-2.2l11.2,50.1l-9.9,2.2L1729.8,512.2z"/>
	<path class="st4" d="M1716.1,546.8l-2.2-9.9l50.1-11.2l2.2,9.9L1716.1,546.8z"/>
</g>
<rect x="1859.3" y="226.2" transform="matrix(0.7741 -0.633 0.633 0.7741 264.44 1254.0601)" class="st5" width="60.5" height="60.5"/>
</svg>
