<svg id="Слой_1" data-name="Слой 1" xmlns="http://www.w3.org/2000/svg" viewBox="0 0 2179.39 971.4"><defs><style>.cls-1{fill:#ffecaa;}.cls-2{fill:#ffe176;}.cls-3{fill:none;stroke:#fff;stroke-opacity:0.5;stroke-width:2px;}</style></defs><title>Безымянный-1</title><path class="cls-1" d="M0,31.65s122,111,245,60c113.32-47,138-73,256-85.5C661-10.75,830.74,47,1039.5,85.65c162.5,30.07,299,35.4,373,12,98-31,121-97.5,226-97.5,172.5,0,281.5,86,281.5,86v874.5s-159.16-20-316.5-48.5c-91-16.5-241-52.24-310-35.5-84.5,20.5-133.5,104.5-292,94C734.77,953,608.64,918,321,896.65c-135-10-321,20-321,20Z" transform="translate(235.13 -0.15)"/><path class="cls-2" d="M0,136.36c98-22,126.23-29.27,221-67.61,131-53,278.5-30,420-8,217.23,33.78,317.5,54.5,540,67.5,178.79,10.45,239.78.06,403-70,116.5-50,336,23,336,23v851s-338-71-567.5-90.5c-139.54-11.85-193.29,71.9-333,81.5-119.12,8.19-227.5-10-543.5-44-102.31-11-476-21.5-476-21.5Z" transform="translate(235.13 -0.15)"/><path class="cls-3" d="M1577.56,237.21c-105.35-19-160.84,60-175.92,118-6.93,17.32,2.65,115.91,11.06,136.76,16.08,39.89,32.83,135.76,112.58,166.94,137.07,53.57,335-30.64,369.93-62.35,36.19-32.85,83-114.62,8-194.42C1850.65,346.15,1709.24,261,1577.56,237.21Z" transform="translate(235.13 -0.15)"/><path class="cls-3" d="M1607.64,306.7c-72-13-110,41-120.3,80.62-4.74,11.83,1.81,79.19,7.56,93.44,11,27.26,22.46,92.76,77,114.06,93.73,36.61,229.07-20.93,253-42.6,24.74-22.44,56.78-78.31,5.5-132.84C1794.38,381.13,1697.69,323,1607.64,306.7Z" transform="translate(235.13 -0.15)"/><path class="cls-3" d="M176.71,199C70.37,98.08-52.6,147-113.46,202.21c-21,14.66-84.1,134.89-90.15,165.12-11.56,57.81-64.44,180.32,3.46,275.94,116.7,164.35,406.68,216.41,470.54,206.28,66.14-10.49,181.26-69.08,155.36-216.88C407.58,529,309.64,325.18,176.71,199Z" transform="translate(235.13 -0.15)"/><path class="cls-3" d="M166.79,292.16C86,215.49-7.39,252.63-53.6,294.5-69.51,305.62-117.44,396.89-122,419.84c-8.77,43.89-48.9,136.89,2.71,209.51,88.68,124.82,309,164.44,357.45,156.77,50.24-8,137.66-52.39,117.94-164.63C342.25,542.76,267.79,388,166.79,292.16Z" transform="translate(235.13 -0.15)"/></svg>