<svg id="Слой_1" data-name="Слой 1" xmlns="http://www.w3.org/2000/svg" viewBox="0 0 1920 1000"><defs><style>.cls-1,.cls-3{fill:none;}.cls-1{stroke:#ffe5a9;stroke-opacity:0.5;stroke-width:2px;}.cls-2{fill:#ffc035;}.cls-3{stroke:#ffc035;stroke-width:10px;}</style></defs><title>questions_bg</title><path class="cls-1" d="M399.33,447.24c41.09-154.49-69.66-246.66-154-276.13C220.41,158.7,72.71,161,40.69,171-20.56,190.09-165.09,203.4-221.1,318.31c-96.28,197.51,4.86,502.3,47.76,558.15,44.43,57.84,160.28,137.48,288,35.54C204.25,840.49,348,640.35,399.33,447.24Z"/><path class="cls-1" d="M331.38,465.06c34.56-129.95-58.59-207.48-129.55-232.27-21-10.43-145.18-8.5-172.11-.1C-21.8,248.76-143.36,260-190.48,356.61c-81,166.13,4.08,422.5,40.17,469.47C-112.94,874.74-15.49,941.72,91.93,856,167.29,795.83,288.18,627.49,331.38,465.06Z"/><path class="cls-1" d="M261.36,466.1c23.73-89.2-40.22-142.42-88.92-159.43-14.38-7.17-99.66-5.84-118.15-.08-35.36,11-118.81,18.72-151.15,85.07-55.59,114,2.81,290,27.58,322.26C-43.63,747.32,23.26,793.3,97,734.44,148.73,693.15,231.71,577.6,261.36,466.1Z"/><path class="cls-2" d="M1740,.45l-16.85,5.82,29.44,85.36,16.86-5.82Z"/><path class="cls-2" d="M1792.39,39.56l-5.82-16.85-85.36,29.44L1707,69Z"/><circle class="cls-3" cx="1644.6" cy="793.8" r="19"/></svg>