<?xml version="1.0" encoding="utf-8"?>
<!-- Generator: Adobe Illustrator 24.0.1, SVG Export Plug-In . SVG Version: 6.00 Build 0)  -->
<svg version="1.1" id="Слой_1" xmlns="http://www.w3.org/2000/svg" xmlns:xlink="http://www.w3.org/1999/xlink" x="0px" y="0px"
	 viewBox="0 0 1920 795" style="enable-background:new 0 0 1920 795;" xml:space="preserve">
<style type="text/css">
	.st0{fill:none;stroke:#FFC035;stroke-width:14.9994;stroke-miterlimit:3.9998;}
	.st1{fill:none;stroke:#FFC035;stroke-width:12;}
	.st2{fill:none;stroke:#FFC035;stroke-width:15;}
	.st3{fill:#FFC035;fill-opacity:0.7;}
	.st4{fill:none;stroke:#FFE5A9;stroke-width:2;stroke-opacity:0.15;}
</style>
<rect x="1695.5" y="244.1" transform="matrix(0.7741 -0.633 0.633 0.7741 219.1029 1148.1725)" class="st0" width="46" height="46"/>
<circle class="st1" cx="1810.3" cy="381" r="21.7"/>
<circle class="st2" cx="150.9" cy="656.5" r="27"/>
<g>
	<path class="st3" d="M1602.6,579l-9.8,3.4l17.2,49.8l9.8-3.4L1602.6,579z"/>
	<path class="st3" d="M1633.2,601.9l-3.4-9.8l-49.8,17.2l3.4,9.8L1633.2,601.9z"/>
</g>
<path class="st4" d="M399.7,32.8C237.8,3.6,152.5,125,129.4,214.1c-10.6,26.6,4.1,178.1,17,210.1c24.7,61.3,50.5,208.6,173,256.4
	C530,763,834.2,633.6,887.9,584.9c55.6-50.5,127.6-176.1,12.4-298.7C819.4,200.2,602.1,69.4,399.7,32.8z"/>
<path class="st4" d="M413.6,79.7C274.3,54.6,201,159,181.1,235.6c-9.2,22.9,3.5,153.1,14.6,180.7c21.3,52.7,43.4,179.4,148.8,220.6
	c181.2,70.8,442.8-40.5,488.9-82.4c47.8-43.4,109.7-151.4,10.6-256.9C774.5,223.7,587.6,111.2,413.6,79.7z"/>
<path class="st4" d="M433.2,125.6C316,104.5,254.3,192.3,237.6,256.7c-7.7,19.2,2.9,128.8,12.3,151.9
	c17.9,44.3,36.5,150.8,125.2,185.4c152.4,59.5,372.6-34,411.4-69.3c40.2-36.5,92.3-127.3,8.9-216
	C736.9,246.6,579.7,152.1,433.2,125.6z"/>
</svg>
