<svg id="Слой_1" data-name="Слой 1" xmlns="http://www.w3.org/2000/svg" viewBox="0 0 2401.87 1388.37"><defs><style>.cls-1,.cls-3{fill:none;stroke-width:2px;}.cls-1{stroke:#ffe5a9;stroke-opacity:0.15;}.cls-2{fill:#ffc035;}.cls-3{stroke:#ffecaa;stroke-opacity:0.5;}</style></defs><title>seller-top_bg</title><path class="cls-1" d="M-214.11,30.5C-414.55,146.64-469.6,364.9-416.46,479c11.86,37.45,87.73,128.1,149.19,202.18C-209.69,750.58-146.7,852.91,203,794.37S779.78,323.12,797.21,165.06,780.49-134.62,548.52-158.3C385.8-174.91,36.45-114.69-214.11,30.5Z" transform="translate(436.51 161.98)"/><path class="cls-1" d="M-89.22,76.82c-157.64,93.41-280.77,254-225.27,380.54s76,151,199,223.5,254.79,71.1,391,20.5c234.09-87,400.55-467.49,414.54-544.07C704.55,78,683.8-71.79,504.9-84.75,379.4-93.84,107.82-39.93-89.22,76.82Z" transform="translate(436.51 161.98)"/><path class="cls-1" d="M-78.37,167.48C-218.9,253.76-219.92,386.16-190.28,457.79c6,23.8,98.13,110.52,125.2,122.51,51.76,22.94,150.2,99.86,270.31,50.91,206.45-84.13,372.14-363.36,387.58-429.1C608.8,134,597.34,7.55,443,4.29,334.75,2,97.29,59.63-78.37,167.48Z" transform="translate(436.51 161.98)"/><path class="cls-2" d="M227.76,110.57l-16.85,5.82,29.44,85.36,16.86-5.82Z" transform="translate(436.51 161.98)"/><path class="cls-2" d="M280.19,149.68l-5.82-16.85L189,162.27l5.82,16.85Z" transform="translate(436.51 161.98)"/><path class="cls-3" d="M1575.71,1183.94c138.9,90,264,15.62,319.24-54.5,20-19.47,63.78-160,64-193.66.35-64.29,32.37-205.5-63-296.53-163.92-156.44-494.8-161.48-563-139.34-70.67,22.93-185,106.27-124.77,260.87C1250.38,869.24,1402.09,1071.46,1575.71,1183.94Z" transform="translate(436.51 161.98)"/><path class="cls-3" d="M1582.35,1114.4c114.77,72.92,215.7,16.41,259.71-37.86,16-15,49.57-124.84,49.19-151.27-.72-50.54,23.21-161.08-56.06-234.14C1699,565.57,1428.81,556.44,1373.46,572.78c-57.33,16.93-149.36,80.67-97.76,203.18C1311.9,861.89,1438.88,1023.26,1582.35,1114.4Z" transform="translate(436.51 161.98)"/><path class="cls-3" d="M1588.16,1033.12c82.51,53.21,156.4,9.86,189-31.17,11.76-11.38,37.36-93.83,37.38-113.57,0-37.76,18.63-120.61-38.11-174.32-97.51-92.32-293.52-96.15-333.88-83.32-41.8,13.28-109.32,61.93-73.22,152.89C1394.62,847.44,1485,966.6,1588.16,1033.12Z" transform="translate(436.51 161.98)"/><path class="cls-2" d="M1692,997.37l-16.85,5.82,29.44,85.36,16.86-5.82Z" transform="translate(436.51 161.98)"/><path class="cls-2" d="M1744.43,1036.48l-5.82-16.85-85.36,29.44,5.82,16.85Z" transform="translate(436.51 161.98)"/></svg>