<?xml version="1.0" encoding="utf-8"?>
<!-- Generator: Adobe Illustrator 24.0.1, SVG Export Plug-In . SVG Version: 6.00 Build 0)  -->
<svg version="1.1" id="Слой_1" xmlns="http://www.w3.org/2000/svg" xmlns:xlink="http://www.w3.org/1999/xlink" x="0px" y="0px"
	 viewBox="0 0 1920 821" style="enable-background:new 0 0 1920 821;" xml:space="preserve">
<style type="text/css">
	.st0{fill:#FFE176;}
	.st1{fill:#FFECAA;}
	.st2{opacity:0.5;fill:none;stroke:#FFFFFF;stroke-width:8;enable-background:new    ;}
	.st3{opacity:0.5;fill:none;stroke:#FFFFFF;stroke-width:11.9995;stroke-miterlimit:3.9998;enable-background:new    ;}
	.st4{opacity:0.5;}
	.st5{fill:#FFFFFF;}
</style>
<path class="st0" d="M0.4,88.7c37.5-5.1,88.2,3.3,182.5-44.5c76-38.5,226.5-40,289.5-28.5c71.5,13,304.2,89,405.5,89
	c153.5,0,335.2-27.3,398.5-49.5c140-49,356-5.8,439,26.5c110.5,43,168,52,216.5,61.5s-13-72.8,57-89.5c28.1-6.7,30.8-32.5,31-39.7
	v-1.8c0,0,0,0.7,0,1.8v585.2c-22.3-2.9-174.6,6-209,6c-218,0-665.3,173.1-824,163.6c-385-23-600-145.5-749.5-163.6
	c-119.6-14.5-218.3,7.7-237,13.7L0.4,88.7L0.4,88.7z"/>
<path class="st1" d="M389.4,637.2C177.4,564.7,39.5,584.1-3,602.9V624c167.5-39.7,349.9,56.2,509.9,114.2
	c186.5,67.6,263.6,114.9,714.3,0c450.7-114.9,657-85.1,703.8-55.9v-91.1c-241.4-37.7-583.3,77.4-791.3,129.8
	C925.8,773.4,654.3,727.8,389.4,637.2z"/>
<circle class="st2" cx="137.8" cy="189.6" r="12"/>
<rect x="519.4" y="416.7" transform="matrix(0.6853 -0.7282 0.7282 0.6853 -146.268 525.0794)" class="st3" width="30.1" height="30.1"/>
<circle class="st2" cx="626.8" cy="361.6" r="12"/>
<g class="st4">
	<path class="st5" d="M187.8,48l10.9,3.8l-19,55l-10.9-3.8L187.8,48z"/>
	<path class="st5" d="M154,73.2l3.8-10.9l55,19L209,92.2L154,73.2z"/>
</g>
<circle class="st2" cx="1701.5" cy="196.4" r="17.1"/>
<g class="st4">
	<path class="st5" d="M1474.8,465l10.9,3.8l-19,55l-10.9-3.8L1474.8,465z"/>
	<path class="st5" d="M1441,490.2l3.8-10.9l55,19l-3.8,10.9L1441,490.2z"/>
</g>
</svg>
