<svg width="124" height="40" viewBox="0 0 124 40" fill="none" xmlns="http://www.w3.org/2000/svg">
<path d="M45.8 14.12C45.24 14.12 44.7367 14.0167 44.29 13.81C43.8433 13.6033 43.51 13.34 43.29 13.02L43.78 12.49C43.98 12.7567 44.26 12.9733 44.62 13.14C44.9867 13.3 45.3733 13.38 45.78 13.38C46.3 13.38 46.71 13.27 47.01 13.05C47.31 12.8233 47.46 12.5167 47.46 12.13C47.46 11.73 47.3033 11.4333 46.99 11.24C46.6833 11.0467 46.2633 10.95 45.73 10.95H44.37V10.21H45.73C46.2033 10.21 46.59 10.12 46.89 9.94C47.1967 9.75333 47.35 9.47667 47.35 9.11C47.35 8.75 47.1967 8.47 46.89 8.27C46.59 8.07 46.21 7.97 45.75 7.97C44.9967 7.97 44.3667 8.24 43.86 8.78L43.4 8.26C43.6667 7.95333 44.0067 7.70667 44.42 7.52C44.84 7.32667 45.3033 7.23 45.81 7.23C46.49 7.23 47.0567 7.39 47.51 7.71C47.97 8.03 48.2 8.46333 48.2 9.01C48.2 9.45 48.05 9.80333 47.75 10.07C47.4567 10.33 47.1267 10.4933 46.76 10.56C47.1267 10.5933 47.4733 10.7533 47.8 11.04C48.1333 11.3267 48.3 11.7133 48.3 12.2C48.3 12.76 48.07 13.22 47.61 13.58C47.15 13.94 46.5467 14.12 45.8 14.12ZM53.3598 14H52.6098V13.45C52.2032 13.8967 51.6698 14.12 51.0098 14.12C50.5632 14.12 50.1698 13.9767 49.8298 13.69C49.4898 13.4033 49.3198 13.0133 49.3198 12.52C49.3198 12.0133 49.4865 11.6233 49.8198 11.35C50.1598 11.07 50.5565 10.93 51.0098 10.93C51.6965 10.93 52.2298 11.15 52.6098 11.59V10.72C52.6098 10.4 52.4965 10.15 52.2698 9.97C52.0432 9.79 51.7498 9.7 51.3898 9.7C50.8232 9.7 50.3298 9.92333 49.9098 10.37L49.5598 9.85C50.0732 9.31667 50.7165 9.05 51.4898 9.05C52.0432 9.05 52.4932 9.18333 52.8398 9.45C53.1865 9.71667 53.3598 10.1267 53.3598 10.68V14ZM51.2798 13.58C51.8798 13.58 52.3232 13.38 52.6098 12.98V12.07C52.3232 11.67 51.8798 11.47 51.2798 11.47C50.9332 11.47 50.6465 11.57 50.4198 11.77C50.1998 11.9633 50.0898 12.2167 50.0898 12.53C50.0898 12.8367 50.1998 13.09 50.4198 13.29C50.6465 13.4833 50.9332 13.58 51.2798 13.58ZM58.2433 9.17V9.83H55.6133V14H54.8633V9.17H58.2433ZM61.5988 14.12C60.9188 14.12 60.3754 13.8367 59.9688 13.27V15.84H59.2188V9.17H59.9688V9.89C60.1488 9.63667 60.3821 9.43333 60.6688 9.28C60.9554 9.12667 61.2654 9.05 61.5988 9.05C62.2388 9.05 62.7554 9.28 63.1488 9.74C63.5488 10.1933 63.7487 10.8067 63.7487 11.58C63.7487 12.3533 63.5488 12.97 63.1488 13.43C62.7554 13.89 62.2388 14.12 61.5988 14.12ZM61.4087 13.45C61.8821 13.45 62.2588 13.2767 62.5388 12.93C62.8188 12.5767 62.9588 12.1267 62.9588 11.58C62.9588 11.0333 62.8188 10.5867 62.5388 10.24C62.2588 9.89333 61.8821 9.72 61.4087 9.72C61.1221 9.72 60.8421 9.79667 60.5688 9.95C60.3021 10.0967 60.1021 10.2767 59.9688 10.49V12.67C60.1021 12.89 60.3021 13.0767 60.5688 13.23C60.8421 13.3767 61.1221 13.45 61.4087 13.45ZM64.6714 15.89L64.7914 15.21C64.9114 15.2633 65.0481 15.29 65.2014 15.29C65.3747 15.29 65.5181 15.2533 65.6314 15.18C65.7447 15.1067 65.8414 14.9733 65.9214 14.78L66.2414 14.05L64.2214 9.17H65.0314L66.6414 13.13L68.2414 9.17H69.0614L66.6414 14.98C66.3747 15.62 65.9014 15.9467 65.2214 15.96C65.0214 15.96 64.8381 15.9367 64.6714 15.89ZM71.5538 14.12C70.6271 14.12 69.9004 13.8567 69.3738 13.33L69.7438 12.85C70.1971 13.2833 70.8004 13.5 71.5538 13.5C71.9871 13.5 72.3304 13.4233 72.5838 13.27C72.8438 13.1167 72.9738 12.9133 72.9738 12.66C72.9738 12.1267 72.4671 11.86 71.4538 11.86H70.3738V11.25H71.4538C71.8738 11.25 72.2171 11.1833 72.4838 11.05C72.7504 10.91 72.8838 10.7067 72.8838 10.44C72.8838 10.2133 72.7504 10.03 72.4838 9.89C72.2171 9.74333 71.8804 9.67 71.4738 9.67C70.8004 9.67 70.2604 9.87667 69.8538 10.29L69.4638 9.83C69.9638 9.31667 70.6238 9.06 71.4438 9.06C72.1038 9.05333 72.6371 9.16667 73.0438 9.4C73.4571 9.62667 73.6638 9.94333 73.6638 10.35C73.6638 10.6833 73.5271 10.9533 73.2538 11.16C72.9871 11.3667 72.6904 11.49 72.3638 11.53C72.7038 11.5567 73.0204 11.67 73.3138 11.87C73.6138 12.07 73.7638 12.35 73.7638 12.71C73.7638 13.1233 73.5638 13.4633 73.1638 13.73C72.7704 13.99 72.2338 14.12 71.5538 14.12ZM75.7005 14H74.9805V9.17H75.7305V12.86L78.2605 9.17H79.0005V14H78.2505V10.24L75.7005 14ZM82.128 14H81.378V9.83H79.978V9.17H83.538V9.83H82.128V14ZM86.7015 14.12C85.9815 14.12 85.3915 13.8867 84.9315 13.42C84.4715 12.9467 84.2415 12.3333 84.2415 11.58C84.2415 10.8733 84.4682 10.2767 84.9215 9.79C85.3748 9.29667 85.9415 9.05 86.6215 9.05C87.3348 9.05 87.8982 9.29667 88.3115 9.79C88.7315 10.2767 88.9415 10.8933 88.9415 11.64V11.83H85.0315C85.0648 12.3033 85.2382 12.7 85.5515 13.02C85.8648 13.34 86.2715 13.5 86.7715 13.5C87.3715 13.5 87.8682 13.2967 88.2615 12.89L88.6215 13.38C88.1282 13.8733 87.4882 14.12 86.7015 14.12ZM88.2015 11.28C88.1948 10.8667 88.0548 10.4967 87.7815 10.17C87.5082 9.83667 87.1182 9.67 86.6115 9.67C86.1315 9.67 85.7515 9.83333 85.4715 10.16C85.1982 10.4867 85.0515 10.86 85.0315 11.28H88.2015ZM95.4444 14H92.7344V9.17H95.3944C95.8144 9.17 96.1444 9.28333 96.3844 9.51C96.631 9.73667 96.7544 10.0367 96.7544 10.41C96.7544 10.6833 96.6777 10.92 96.5244 11.12C96.3777 11.3133 96.1944 11.4433 95.9744 11.51C96.221 11.57 96.4277 11.7133 96.5944 11.94C96.7677 12.1667 96.8544 12.4167 96.8544 12.69C96.8544 13.0833 96.7277 13.4 96.4744 13.64C96.2277 13.88 95.8844 14 95.4444 14ZM95.2944 13.34C95.5344 13.34 95.7244 13.2733 95.8644 13.14C96.0044 13.0067 96.0744 12.8267 96.0744 12.6C96.0744 12.3933 96.0044 12.2167 95.8644 12.07C95.7244 11.9233 95.5344 11.85 95.2944 11.85H93.4844V13.34H95.2944ZM95.2644 11.19C95.491 11.19 95.6677 11.13 95.7944 11.01C95.921 10.8833 95.9844 10.72 95.9844 10.52C95.9844 10.3067 95.921 10.14 95.7944 10.02C95.6677 9.89333 95.491 9.83 95.2644 9.83H93.4844V11.19H95.2644Z" fill="#222222"/>
<path d="M55.078 35H52.684L51.802 32.696H46.294L45.412 35H43.018L47.734 22.994H50.362L55.078 35ZM51.208 30.842L49.048 25.118L46.888 30.842H51.208ZM61.0153 35.216C59.8633 35.216 58.9333 34.742 58.2253 33.794V38.312H56.3353V26.306H58.2253V27.494C58.9213 26.558 59.8513 26.09 61.0153 26.09C62.1553 26.09 63.0793 26.498 63.7873 27.314C64.5073 28.13 64.8673 29.24 64.8673 30.644C64.8673 32.048 64.5073 33.164 63.7873 33.992C63.0793 34.808 62.1553 35.216 61.0153 35.216ZM60.4573 33.542C61.2013 33.542 61.7953 33.272 62.2393 32.732C62.6833 32.192 62.9053 31.496 62.9053 30.644C62.9053 29.792 62.6833 29.102 62.2393 28.574C61.7953 28.034 61.2013 27.764 60.4573 27.764C60.0253 27.764 59.5993 27.878 59.1793 28.106C58.7593 28.334 58.4413 28.61 58.2253 28.934V32.372C58.4413 32.696 58.7593 32.972 59.1793 33.2C59.5993 33.428 60.0253 33.542 60.4573 33.542ZM71.4216 35.216C70.2696 35.216 69.3396 34.742 68.6316 33.794V38.312H66.7416V26.306H68.6316V27.494C69.3276 26.558 70.2576 26.09 71.4216 26.09C72.5616 26.09 73.4856 26.498 74.1936 27.314C74.9136 28.13 75.2736 29.24 75.2736 30.644C75.2736 32.048 74.9136 33.164 74.1936 33.992C73.4856 34.808 72.5616 35.216 71.4216 35.216ZM70.8636 33.542C71.6076 33.542 72.2016 33.272 72.6456 32.732C73.0896 32.192 73.3116 31.496 73.3116 30.644C73.3116 29.792 73.0896 29.102 72.6456 28.574C72.2016 28.034 71.6076 27.764 70.8636 27.764C70.4316 27.764 70.0056 27.878 69.5856 28.106C69.1656 28.334 68.8476 28.61 68.6316 28.934V32.372C68.8476 32.696 69.1656 32.972 69.5856 33.2C70.0056 33.428 70.4316 33.542 70.8636 33.542ZM85.9289 35.216C83.8649 35.216 82.2389 34.58 81.0509 33.308L82.2209 31.688C83.2529 32.792 84.5189 33.344 86.0189 33.344C86.8229 33.344 87.4229 33.182 87.8189 32.858C88.2269 32.534 88.4309 32.15 88.4309 31.706C88.4309 31.25 88.1909 30.89 87.7109 30.626C87.2309 30.35 86.6489 30.134 85.9649 29.978C85.2809 29.822 84.5909 29.636 83.8949 29.42C83.2109 29.204 82.6289 28.838 82.1489 28.322C81.6689 27.806 81.4289 27.14 81.4289 26.324C81.4289 25.316 81.8309 24.482 82.6349 23.822C83.4509 23.15 84.5069 22.814 85.8029 22.814C87.6509 22.814 89.1509 23.372 90.3029 24.488L89.0969 26.054C88.1849 25.142 87.0269 24.686 85.6229 24.686C84.9989 24.686 84.5009 24.824 84.1289 25.1C83.7689 25.364 83.5889 25.724 83.5889 26.18C83.5889 26.48 83.7149 26.732 83.9669 26.936C84.2309 27.14 84.5669 27.308 84.9749 27.44C85.3829 27.56 85.8329 27.68 86.3249 27.8C86.8289 27.92 87.3269 28.07 87.8189 28.25C88.3229 28.418 88.7789 28.628 89.1869 28.88C89.5949 29.132 89.9249 29.48 90.1769 29.924C90.4409 30.368 90.5729 30.896 90.5729 31.508C90.5729 32.588 90.1829 33.476 89.4029 34.172C88.6229 34.868 87.4649 35.216 85.9289 35.216ZM94.8047 35.216C94.0727 35.216 93.5147 35.024 93.1307 34.64C92.7587 34.256 92.5727 33.704 92.5727 32.984V27.962H91.1327V26.306H92.5727V23.93H94.4627V26.306H96.2267V27.962H94.4627V32.516C94.4627 32.828 94.5347 33.08 94.6787 33.272C94.8227 33.452 95.0267 33.542 95.2907 33.542C95.6747 33.542 95.9567 33.44 96.1367 33.236L96.5867 34.658C96.1907 35.03 95.5967 35.216 94.8047 35.216ZM101.867 35.216C100.523 35.216 99.4428 34.778 98.6268 33.902C97.8108 33.014 97.4028 31.928 97.4028 30.644C97.4028 29.36 97.8108 28.28 98.6268 27.404C99.4428 26.528 100.523 26.09 101.867 26.09C103.223 26.09 104.309 26.528 105.125 27.404C105.941 28.28 106.349 29.36 106.349 30.644C106.349 31.94 105.941 33.026 105.125 33.902C104.309 34.778 103.223 35.216 101.867 35.216ZM101.867 33.542C102.647 33.542 103.259 33.266 103.703 32.714C104.159 32.15 104.387 31.46 104.387 30.644C104.387 29.84 104.159 29.162 103.703 28.61C103.259 28.046 102.647 27.764 101.867 27.764C101.099 27.764 100.487 28.046 100.031 28.61C99.5868 29.162 99.3647 29.84 99.3647 30.644C99.3647 31.46 99.5868 32.15 100.031 32.714C100.487 33.266 101.099 33.542 101.867 33.542ZM110.151 35H108.261V26.306H110.151V27.584C110.487 27.152 110.907 26.798 111.411 26.522C111.915 26.246 112.437 26.108 112.977 26.108V27.98C112.809 27.944 112.611 27.926 112.383 27.926C111.987 27.926 111.561 28.046 111.105 28.286C110.661 28.514 110.343 28.778 110.151 29.078V35ZM118.515 35.216C117.195 35.216 116.103 34.796 115.239 33.956C114.387 33.104 113.961 32 113.961 30.644C113.961 29.372 114.375 28.298 115.203 27.422C116.043 26.534 117.099 26.09 118.371 26.09C119.655 26.09 120.687 26.534 121.467 27.422C122.259 28.31 122.655 29.444 122.655 30.824V31.274H115.941C116.013 31.958 116.295 32.528 116.787 32.984C117.279 33.44 117.921 33.668 118.713 33.668C119.157 33.668 119.601 33.584 120.045 33.416C120.501 33.248 120.879 33.014 121.179 32.714L122.043 33.956C121.167 34.796 119.991 35.216 118.515 35.216ZM120.819 29.942C120.795 29.342 120.573 28.808 120.153 28.34C119.745 27.872 119.151 27.638 118.371 27.638C117.627 27.638 117.045 27.872 116.625 28.34C116.205 28.796 115.971 29.33 115.923 29.942H120.819Z" fill="#222222"/>
<path d="M10.9409 38.8916C4.95305 38.8582 0 27.0424 0 21.0249C0 11.1953 7.62814 9.04337 10.568 9.04337C11.8928 9.04337 13.3075 9.5463 14.5553 9.99135C15.4278 10.3018 16.3302 10.6223 16.8321 10.6223C17.1325 10.6223 17.8405 10.3497 18.4655 10.1105C19.7984 9.5975 21.4571 8.95996 23.3886 8.95996C23.392 8.95996 23.3967 8.95996 23.4001 8.95996C24.8423 8.95996 29.2153 9.26593 31.8443 13.0825L32.4602 13.9771L31.5739 14.6236C30.3077 15.5471 27.9974 17.2318 27.9974 20.5688C27.9974 24.5211 30.6138 26.041 31.8708 26.7721C32.4257 27.0948 33 27.4275 33 28.1552C33 28.6303 29.0771 38.8326 23.3805 38.8326C21.9866 38.8326 21.0012 38.4276 20.1322 38.0705C19.2528 37.7088 18.4942 37.3973 17.2407 37.3973C16.6053 37.3973 15.8018 37.6877 14.9512 37.9959C13.7887 38.4153 12.473 38.8916 10.98 38.8916H10.9409Z" fill="#222222"/>
<path d="M23.9921 0C24.1404 5.17109 20.3148 8.75855 16.4936 8.53356C15.8639 4.40685 20.3143 0 23.9921 0Z" fill="#222222"/>
</svg>
