<svg width="29" height="26" viewBox="0 0 29 26" fill="none" xmlns="http://www.w3.org/2000/svg">
<path d="M24.3423 0.954102H4.63036C2.5694 0.954102 0.892578 2.63059 0.892578 4.69188V16.7552C0.892578 18.8118 2.56209 20.4857 4.61709 20.493V25.9671L12.4841 20.493H24.3423C26.4033 20.493 28.0801 18.8161 28.0801 16.7552V4.69188C28.0801 2.63059 26.4033 0.954102 24.3423 0.954102ZM26.4871 16.7552C26.4871 17.9377 25.5249 18.8999 24.3423 18.8999H11.9843L6.2101 22.918V18.8999H4.63036C3.44771 18.8999 2.4856 17.9377 2.4856 16.7552V4.69188C2.4856 3.50907 3.44771 2.54712 4.63036 2.54712H24.3423C25.5249 2.54712 26.4871 3.50907 26.4871 4.69188V16.7552Z" fill="white"/>
<path d="M8.16892 6.58293H20.8032V8.17594H8.16892V6.58293Z" fill="white"/>
<path d="M8.16892 9.98136H20.8032V11.5744H8.16892V9.98136Z" fill="white"/>
<path d="M8.16892 13.3798H20.8032V14.9728H8.16892V13.3798Z" fill="white"/>
</svg>
