<svg width="93" height="94" viewBox="0 0 93 94" fill="none" xmlns="http://www.w3.org/2000/svg">
<g clip-path="url(#clip0)">
<path d="M4.94002 68.8101C5.59686 68.8061 6.24734 68.9389 6.85002 69.2001C7.43968 69.4491 7.97606 69.8089 8.43003 70.2601C8.87704 70.7137 9.2364 71.246 9.49003 71.8301C9.74348 72.4384 9.87268 73.0912 9.87003 73.7501C9.88893 74.9009 9.49115 76.0196 8.75003 76.9001C9.21737 77.1779 9.64749 77.5139 10.03 77.9001C10.3874 78.2659 10.6966 78.6759 10.95 79.1201C11.1995 79.5603 11.3911 80.0309 11.52 80.5201C11.644 81.0106 11.7078 81.5143 11.71 82.0201C11.7125 82.8012 11.5525 83.5743 11.24 84.2901C10.9385 84.9832 10.5152 85.6166 9.99003 86.1601C9.45489 86.6935 8.82383 87.121 8.13003 87.4201C7.41351 87.7294 6.64042 87.8861 5.86002 87.8801H1.26003C1.09136 87.8828 0.924146 87.8487 0.770026 87.7801C0.623494 87.7114 0.488546 87.6203 0.370025 87.5101C0.255477 87.3951 0.163849 87.2594 0.100026 87.1101C0.031462 86.956 -0.00266466 86.7888 2.54674e-05 86.6201V70.0801C-0.00253549 69.9083 0.031555 69.7378 0.100026 69.5801C0.16637 69.4323 0.257707 69.297 0.370025 69.1801C0.486321 69.0697 0.621902 68.9816 0.770026 68.9201C0.923472 68.8484 1.09066 68.8109 1.26003 68.8101H4.94002ZM2.52003 71.3401V76.1601H4.94002C5.26334 76.1648 5.58389 76.1 5.88003 75.9701C6.1653 75.8489 6.42364 75.6721 6.64003 75.4501C6.85905 75.2275 7.03531 74.9665 7.16003 74.6801C7.28546 74.3861 7.35012 74.0698 7.35012 73.7501C7.35012 73.4305 7.28546 73.1142 7.16003 72.8201C6.90059 72.2527 6.44141 71.8007 5.87003 71.5501C5.57716 71.4211 5.26004 71.3563 4.94002 71.3601L2.52003 71.3401ZM2.52003 78.6901V85.3501H5.86002C6.30635 85.3509 6.74834 85.2625 7.16003 85.0901C7.5511 84.9164 7.90699 84.6723 8.21003 84.3701C8.51461 84.0674 8.75595 83.707 8.92003 83.3101C9.09793 82.9002 9.18656 82.457 9.18003 82.0101C9.18555 81.5698 9.09691 81.1334 8.92003 80.7301C8.75595 80.3332 8.51461 79.9729 8.21003 79.6701C7.90416 79.3668 7.54477 79.1227 7.15003 78.9501C6.74152 78.7788 6.30301 78.6904 5.86002 78.6901H2.52003Z" fill="#222222"/>
<path d="M26.75 81.1999C26.7605 82.0821 26.5883 82.9569 26.2441 83.7692C25.8999 84.5816 25.3912 85.3138 24.75 85.9199C24.1384 86.5448 23.4068 87.0396 22.5991 87.3747C21.7914 87.7098 20.9244 87.8782 20.05 87.8699C18.3468 87.7765 16.7441 87.0341 15.5714 85.7954C14.3987 84.5566 13.7451 82.9157 13.7451 81.2099C13.7451 79.5041 14.3987 77.8631 15.5714 76.6244C16.7441 75.3856 18.3468 74.6433 20.05 74.5499C20.9313 74.5453 21.8044 74.7203 22.6158 75.0641C23.4273 75.408 24.1603 75.9135 24.77 76.5499C25.3953 77.1658 25.8916 77.9001 26.23 78.7099C26.5553 79.5008 26.7316 80.3449 26.75 81.1999ZM20.05 77.0199C19.4864 77.0151 18.9279 77.1275 18.41 77.3499C17.9189 77.567 17.4716 77.872 17.09 78.2499C16.7247 78.6258 16.4331 79.0667 16.23 79.5499C16.0122 80.0622 15.8999 80.6132 15.8999 81.1699C15.8999 81.7266 16.0122 82.2776 16.23 82.7899C16.4387 83.2862 16.7408 83.7377 17.12 84.1199C17.5109 84.5172 17.9783 84.831 18.4939 85.0424C19.0096 85.2538 19.5628 85.3584 20.12 85.3499C20.6805 85.3553 21.2358 85.2429 21.75 85.0199C22.2361 84.8133 22.6776 84.5144 23.05 84.1399C23.4298 83.76 23.7351 83.3122 23.95 82.8199C24.1623 82.3062 24.2711 81.7557 24.27 81.1999C24.2744 80.6331 24.1621 80.0714 23.94 79.5499C23.7279 79.053 23.4224 78.6015 23.04 78.2199C22.656 77.8378 22.2053 77.5294 21.71 77.3099C21.1836 77.0964 20.6177 76.9976 20.05 77.0199Z" fill="#222222"/>
<path d="M31.14 75.7601C32.0031 75.1136 33.0207 74.705 34.0912 74.5752C35.1616 74.4453 36.2475 74.5987 37.24 75.0201C37.9829 75.3366 38.6609 75.7875 39.24 76.3501C39.8227 76.919 40.2852 77.5991 40.6 78.3501C40.9186 79.1091 41.072 79.9272 41.05 80.7501V86.6201C41.0527 86.7841 41.0225 86.9471 40.9613 87.0993C40.9001 87.2515 40.809 87.3899 40.6934 87.5064C40.5779 87.6229 40.4402 87.715 40.2885 87.7775C40.1368 87.84 39.9741 87.8715 39.81 87.8701C39.4785 87.8701 39.1606 87.7384 38.9262 87.504C38.6917 87.2696 38.56 86.9516 38.56 86.6201V80.7501C38.5614 80.2555 38.4628 79.7656 38.27 79.3101C38.0758 78.8668 37.8012 78.4634 37.46 78.1201C37.1178 77.7849 36.7181 77.5139 36.28 77.3201C35.8228 77.1204 35.329 77.0183 34.83 77.0201C34.3354 77.0187 33.8456 77.1174 33.39 77.3101C32.9468 77.5043 32.5433 77.779 32.2 78.1201C31.8587 78.4611 31.587 78.8653 31.4 79.3101C31.2026 79.7642 31.1038 80.255 31.11 80.7501V86.6201C31.112 86.7858 31.0803 86.9502 31.0167 87.1032C30.953 87.2562 30.8589 87.3947 30.74 87.5101C30.6271 87.6261 30.4917 87.7179 30.3422 87.7798C30.1926 87.8417 30.0319 87.8724 29.87 87.8701C29.7051 87.8728 29.5414 87.8423 29.3885 87.7804C29.2356 87.7186 29.0967 87.6266 28.9801 87.51C28.8635 87.3934 28.7715 87.2545 28.7097 87.1016C28.6478 86.9488 28.6173 86.785 28.62 86.6201V75.7801C28.6181 75.6168 28.6489 75.4547 28.7108 75.3036C28.7726 75.1524 28.8642 75.0152 28.98 74.9001C29.0944 74.7798 29.2326 74.6847 29.3859 74.621C29.5392 74.5572 29.7041 74.5263 29.87 74.5301C30.0329 74.5272 30.1945 74.5587 30.3444 74.6224C30.4943 74.6862 30.6291 74.7808 30.74 74.9001C30.8612 75.0091 30.9591 75.1415 31.0278 75.2893C31.0965 75.4371 31.1347 75.5972 31.14 75.7601Z" fill="#222222"/>
<path d="M46.05 86.1802C46.05 86.5709 45.9147 86.9495 45.667 87.2517C45.4193 87.5538 45.0746 87.7608 44.6915 87.8374C44.3084 87.914 43.9106 87.8556 43.5657 87.6719C43.2209 87.4883 42.9503 87.1909 42.8 86.8302C42.6498 86.4696 42.6291 86.068 42.7415 85.6939C42.854 85.3197 43.0926 84.9961 43.4167 84.778C43.7409 84.5599 44.1306 84.4609 44.5195 84.4978C44.9085 84.5346 45.2726 84.7051 45.55 84.9802C45.7108 85.1356 45.838 85.3222 45.924 85.5286C46.01 85.7349 46.0529 85.9567 46.05 86.1802Z" fill="#222222"/>
<path d="M62.35 83.5498C62.5161 83.5507 62.68 83.5883 62.8299 83.6598C62.9793 83.7188 63.1154 83.8073 63.2299 83.9198C63.3485 84.0336 63.4436 84.1695 63.5099 84.3198C63.5738 84.4789 63.6077 84.6484 63.6099 84.8198C63.6083 84.9892 63.5719 85.1564 63.5031 85.3112C63.4343 85.466 63.3346 85.6051 63.21 85.7198C61.3802 87.199 59.0683 87.9498 56.7185 87.828C54.3688 87.7062 52.147 86.7203 50.4799 85.0598C49.1481 83.7257 48.2414 82.0268 47.8742 80.1778C47.5071 78.3287 47.696 76.4124 48.4171 74.6706C49.1382 72.9288 50.3592 71.4397 51.9259 70.3913C53.4926 69.3429 55.3348 68.7821 57.2199 68.7798C59.4568 68.7741 61.6226 69.5646 63.3299 71.0098C63.4443 71.123 63.5337 71.2589 63.5923 71.4087C63.6508 71.5586 63.6773 71.7191 63.67 71.8798C63.671 72.0469 63.6389 72.2125 63.5753 72.367C63.5118 72.5215 63.4182 72.6618 63.2999 72.7798C63.1885 72.8986 63.0518 72.9908 62.8999 73.0498C62.7402 73.1103 62.5707 73.1408 62.3999 73.1398C62.0778 73.1291 61.7698 73.0052 61.53 72.7898C60.9326 72.3093 60.2557 71.937 59.53 71.6898C58.7831 71.4351 57.999 71.3067 57.21 71.3098C56.0928 71.3133 54.9926 71.5842 54.0015 72.0998C53.0104 72.6154 52.1571 73.3607 51.5129 74.2735C50.8687 75.1863 50.4523 76.24 50.2986 77.3466C50.1449 78.4531 50.2583 79.5804 50.6292 80.6343C51.0002 81.6881 51.6181 82.6378 52.4311 83.404C53.2441 84.1702 54.2288 84.7307 55.3027 85.0387C56.3766 85.3466 57.5087 85.393 58.6042 85.174C59.6997 84.955 60.7269 84.4769 61.6 83.7798C61.8217 83.6306 62.0827 83.5506 62.35 83.5498Z" fill="#222222"/>
<path d="M68.72 72.16C68.7187 72.3469 68.68 72.5317 68.6062 72.7035C68.5323 72.8752 68.4248 73.0305 68.29 73.16C68.0257 73.4286 67.6667 73.583 67.29 73.59C67.1032 73.5876 66.9187 73.5484 66.7471 73.4746C66.5755 73.4008 66.4202 73.2939 66.29 73.16C66.1552 73.0305 66.0477 72.8752 65.9738 72.7035C65.9 72.5317 65.8613 72.3469 65.86 72.16C65.8432 71.9574 65.8687 71.7536 65.9347 71.5614C66.0007 71.3691 66.1059 71.1927 66.2436 71.0432C66.3812 70.8936 66.5484 70.7743 66.7345 70.6926C66.9207 70.611 67.1217 70.5688 67.325 70.5688C67.5282 70.5688 67.7293 70.611 67.9154 70.6926C68.1016 70.7743 68.2687 70.8936 68.4064 71.0432C68.5441 71.1927 68.6493 71.3691 68.7153 71.5614C68.7813 71.7536 68.8067 71.9574 68.79 72.16H68.72ZM66.05 86.62V75.78C66.0491 75.6145 66.0814 75.4504 66.145 75.2976C66.2085 75.1447 66.302 75.0061 66.42 74.89C66.6417 74.6727 66.9396 74.5507 67.25 74.55C67.4134 74.5475 67.5756 74.5781 67.7268 74.6399C67.8781 74.7018 68.0152 74.7937 68.13 74.91C68.2479 75.0261 68.3414 75.1647 68.405 75.3176C68.4685 75.4704 68.5008 75.6345 68.5 75.8V86.62C68.502 86.7857 68.4702 86.9501 68.4066 87.1031C68.343 87.2561 68.2489 87.3945 68.13 87.51C68.0152 87.6263 67.8781 87.7182 67.7268 87.78C67.5756 87.8419 67.4134 87.8725 67.25 87.87C67.0881 87.8723 66.9275 87.8416 66.7779 87.7797C66.6283 87.7178 66.4929 87.626 66.38 87.51C66.2683 87.3912 66.1816 87.2513 66.1249 87.0984C66.0682 86.9455 66.0427 86.7829 66.05 86.62Z" fill="#222222"/>
<path d="M72.23 74.5501H72.79V70.0501C72.7953 69.7194 72.9303 69.404 73.166 69.172C73.4018 68.94 73.7193 68.81 74.05 68.8101C74.3781 68.8127 74.6919 68.9442 74.9239 69.1761C75.1559 69.4081 75.2874 69.722 75.29 70.0501V74.5501H76.78C76.9419 74.5477 77.1025 74.5785 77.2521 74.6404C77.4017 74.7023 77.5371 74.794 77.65 74.9101C77.8803 75.1471 78.0091 75.4646 78.0091 75.7951C78.0091 76.1256 77.8803 76.443 77.65 76.6801C77.5371 76.7961 77.4017 76.8879 77.2521 76.9498C77.1025 77.0117 76.9419 77.0424 76.78 77.0401H75.28V83.0401C75.2348 83.3627 75.2652 83.6915 75.369 84.0004C75.4728 84.3093 75.647 84.5898 75.8779 84.8197C76.1088 85.0496 76.39 85.2226 76.6993 85.3251C77.0086 85.4276 77.3375 85.4567 77.66 85.4101C77.8231 85.4052 77.9854 85.4358 78.1356 85.4997C78.2857 85.5636 78.4203 85.6592 78.53 85.7801C78.646 85.893 78.7378 86.0283 78.7997 86.1779C78.8616 86.3275 78.8923 86.4882 78.89 86.6501C78.8939 86.8151 78.864 86.9792 78.802 87.1323C78.7401 87.2853 78.6476 87.4241 78.53 87.5401C78.4186 87.658 78.2835 87.7511 78.1335 87.8132C77.9836 87.8752 77.8222 87.9048 77.66 87.9001C74.42 87.9001 72.79 86.2801 72.79 83.0401V77.0401H72.23C72.0697 77.0416 71.9108 77.0105 71.7629 76.9486C71.6151 76.8867 71.4814 76.7953 71.37 76.6801C71.1397 76.443 71.0109 76.1256 71.0109 75.7951C71.0109 75.4646 71.1397 75.1471 71.37 74.9101C71.4814 74.7948 71.6151 74.7034 71.7629 74.6415C71.9108 74.5796 72.0697 74.5485 72.23 74.5501Z" fill="#222222"/>
<path d="M84.98 86.6301L80.69 76.33C80.6112 76.1538 80.5704 75.9631 80.57 75.7701C80.5674 75.6046 80.6016 75.4407 80.67 75.29C80.7314 75.1419 80.8195 75.0063 80.93 74.89C81.0409 74.7777 81.1736 74.6893 81.32 74.6301C81.4738 74.5605 81.6412 74.5264 81.81 74.5301C82.0559 74.5289 82.2964 74.6021 82.5 74.7401C82.7216 74.8887 82.8926 75.1016 82.99 75.3501L86.34 83.3501L89.68 75.3501C89.7702 75.1278 89.9105 74.9293 90.09 74.7701C90.3093 74.6091 90.5786 74.5312 90.85 74.5501C91.0187 74.5464 91.1861 74.5805 91.34 74.65C91.4863 74.7093 91.619 74.7977 91.73 74.9101C91.8402 75.0286 91.9312 75.1635 92 75.3101C92.0683 75.4607 92.1025 75.6246 92.1 75.79C92.0967 75.9838 92.0524 76.1747 91.97 76.3501L85.12 92.7801C85.019 93.0209 84.8528 93.2287 84.64 93.3801C84.4375 93.5301 84.192 93.6108 83.94 93.61C83.7748 93.6145 83.6105 93.5849 83.4574 93.5229C83.3042 93.461 83.1655 93.3681 83.05 93.25C82.9351 93.1326 82.845 92.9933 82.7849 92.8405C82.7248 92.6876 82.6959 92.5243 82.7 92.36C82.7003 92.1703 82.7412 91.9827 82.82 91.8101L84.98 86.6301Z" fill="#222222"/>
<path d="M60.29 16.2798V16.6798" stroke="#222222" stroke-width="3" stroke-miterlimit="10"/>
<path d="M17.8301 16.5502H64.2701C67.0876 16.5502 69.7898 17.6688 71.7831 19.6602C73.7763 21.6515 74.8974 24.3527 74.9001 27.1702V52.1702C74.904 53.5818 74.6294 54.9803 74.0919 56.2856C73.5544 57.5909 72.7647 58.7773 71.7679 59.7769C70.7712 60.7764 69.587 61.5695 68.2832 62.1106C66.9794 62.6517 65.5817 62.9302 64.1701 62.9302H19.6601C18.2506 62.9315 16.8547 62.6549 15.5523 62.1161C14.2499 61.5774 13.0665 60.7871 12.0699 59.7904C11.0732 58.7938 10.2829 57.6104 9.74415 56.308C9.20539 55.0056 8.92874 53.6097 8.93006 52.2002V11.4902" fill="#F85B2A"/>
<path d="M17.8301 16.5502H64.2701C67.0876 16.5502 69.7898 17.6688 71.7831 19.6602C73.7763 21.6515 74.8974 24.3527 74.9001 27.1702V52.1702C74.904 53.5818 74.6294 54.9803 74.0919 56.2856C73.5544 57.5909 72.7647 58.7773 71.7679 59.7769C70.7712 60.7764 69.587 61.5695 68.2832 62.1106C66.9794 62.6517 65.5817 62.9302 64.1701 62.9302H19.6601C18.2506 62.9315 16.8547 62.6549 15.5523 62.1161C14.2499 61.5774 13.0665 60.7871 12.0699 59.7904C11.0732 58.7938 10.2829 57.6104 9.74415 56.308C9.20539 55.0056 8.92874 53.6097 8.93006 52.2002V11.4902" stroke="#222222" stroke-width="3" stroke-miterlimit="10"/>
<path d="M52.4501 5.5498H14.9301C13.3388 5.5498 11.8126 6.18194 10.6874 7.30716C9.5622 8.43238 8.93005 9.95851 8.93005 11.5498C8.93005 12.8759 9.45684 14.1477 10.3945 15.0853C11.3322 16.023 12.604 16.5498 13.9301 16.5498L58.5301 16.6198V11.6198C58.5196 10.0115 57.8753 8.47212 56.7371 7.33575C55.5988 6.19939 54.0584 5.55767 52.4501 5.5498Z" fill="#F85B2A" stroke="#222222" stroke-width="3" stroke-miterlimit="10"/>
<path d="M76.62 32.6201H69.18C66.6671 32.6201 64.63 34.6572 64.63 37.1701V39.0601C64.63 41.573 66.6671 43.6101 69.18 43.6101H76.62C79.1329 43.6101 81.17 41.573 81.17 39.0601V37.1701C81.17 34.6572 79.1329 32.6201 76.62 32.6201Z" fill="#FF6633" stroke="#222222" stroke-width="3" stroke-miterlimit="10"/>
<path d="M15.73 16.5499L19.25 2.73988C19.3025 2.53004 19.396 2.33266 19.5251 2.15911C19.6543 1.98556 19.8164 1.83927 20.0023 1.72866C20.1882 1.61805 20.3942 1.54531 20.6083 1.51463C20.8224 1.48395 21.0405 1.49593 21.25 1.54988L63.88 12.4399C64.0896 12.4923 64.2867 12.5859 64.4599 12.7151C64.633 12.8444 64.7787 13.0068 64.8885 13.1929C64.9983 13.379 65.07 13.5851 65.0995 13.7992C65.1289 14.0133 65.1155 14.231 65.06 14.4399L64.53 16.5499H15.73Z" fill="#85BB65" stroke="#222222" stroke-width="3" stroke-miterlimit="10"/>
<path d="M41.58 55.1802C41.8561 55.1802 42.08 54.9563 42.08 54.6802C42.08 54.404 41.8561 54.1802 41.58 54.1802C41.3038 54.1802 41.08 54.404 41.08 54.6802C41.08 54.9563 41.3038 55.1802 41.58 55.1802Z" fill="#222222" stroke="#222222" stroke-width="2" stroke-miterlimit="10"/>
<path d="M35.34 55.1802C35.6161 55.1802 35.84 54.9563 35.84 54.6802C35.84 54.404 35.6161 54.1802 35.34 54.1802C35.0638 54.1802 34.84 54.404 34.84 54.6802C34.84 54.9563 35.0638 55.1802 35.34 55.1802Z" fill="#222222" stroke="#222222" stroke-width="2" stroke-miterlimit="10"/>
<path d="M31.38 39.1602C31.6561 39.1602 31.88 38.9363 31.88 38.6602C31.88 38.384 31.6561 38.1602 31.38 38.1602C31.1039 38.1602 30.88 38.384 30.88 38.6602C30.88 38.9363 31.1039 39.1602 31.38 39.1602Z" fill="#222222" stroke="#222222" stroke-width="2" stroke-miterlimit="10"/>
<path d="M35.34 24.9399C35.6161 24.9399 35.84 24.7161 35.84 24.4399C35.84 24.1638 35.6161 23.9399 35.34 23.9399C35.0638 23.9399 34.84 24.1638 34.84 24.4399C34.84 24.7161 35.0638 24.9399 35.34 24.9399Z" fill="#222222" stroke="#222222" stroke-width="2" stroke-miterlimit="10"/>
<path d="M35.34 24.4399V54.6799" stroke="#222222" stroke-width="3" stroke-miterlimit="10"/>
<path d="M43.41 38.5498C45.5503 38.5498 47.6029 39.4 49.1163 40.9135C50.6297 42.4269 51.48 44.4795 51.48 46.6198C51.48 48.7601 50.6297 50.8127 49.1163 52.3262C47.6029 53.8396 45.5503 54.6898 43.41 54.6898H41.58" stroke="#222222" stroke-width="3" stroke-miterlimit="10"/>
<path d="M43.41 38.5498L31.35 38.6598" stroke="#222222" stroke-width="3" stroke-miterlimit="10"/>
</g>
<defs>
<clipPath id="clip0">
<rect width="92.1" height="93.59" fill="white"/>
</clipPath>
</defs>
</svg>
