<svg id="Слой_1" data-name="Слой 1" xmlns="http://www.w3.org/2000/svg" viewBox="0 0 92.1 93.59"><defs><style>.cls-1{fill:#222;}.cls-2,.cls-6{fill:none;}.cls-2,.cls-3,.cls-4,.cls-5,.cls-6{stroke:#222;stroke-miterlimit:10;}.cls-2,.cls-3,.cls-4,.cls-5{stroke-width:3px;}.cls-3{fill:#f85b2a;}.cls-4{fill:#f63;}.cls-5{fill:#85bb65;}.cls-6{stroke-width:2px;}</style></defs><title>Logo-final</title><path class="cls-1" d="M31.36,92.74a4.76,4.76,0,0,1,1.91.39,5,5,0,0,1,2.63,2.63,4.76,4.76,0,0,1,.39,1.91,4.83,4.83,0,0,1-1.12,3.16,6.34,6.34,0,0,1,1.27,1,5.72,5.72,0,0,1,.93,1.22,5.87,5.87,0,0,1,.75,2.9,5.62,5.62,0,0,1-.46,2.27,6.16,6.16,0,0,1-1.26,1.87,6,6,0,0,1-1.86,1.26,5.58,5.58,0,0,1-2.27.46H27.68a1.13,1.13,0,0,1-.49-.1,1.41,1.41,0,0,1-.4-.27,1.15,1.15,0,0,1-.28-.4,1.34,1.34,0,0,1-.1-.49V94a1.39,1.39,0,0,1,.1-.5,1.26,1.26,0,0,1,.28-.4,1.41,1.41,0,0,1,.4-.27,1.3,1.3,0,0,1,.49-.1Zm-2.42,2.53v4.82h2.42a2.24,2.24,0,0,0,.93-.19,2.34,2.34,0,0,0,.76-.52,2.55,2.55,0,0,0,.52-.77,2.26,2.26,0,0,0,.19-.94,2.23,2.23,0,0,0-.19-.92,2.68,2.68,0,0,0-.52-.77,2.55,2.55,0,0,0-.77-.52,2.23,2.23,0,0,0-.92-.19Zm0,7.35v6.66h3.33a3.15,3.15,0,0,0,1.3-.27,3.24,3.24,0,0,0,1.06-.71,3.38,3.38,0,0,0,.7-1.06,3.19,3.19,0,0,0,.27-1.3,3.09,3.09,0,0,0-.27-1.28,3.39,3.39,0,0,0-.71-1.07,3.52,3.52,0,0,0-1.06-.71,3.3,3.3,0,0,0-1.29-.26Z" transform="translate(-26.41 -23.93)"/><path class="cls-1" d="M53.17,105.13a6.36,6.36,0,0,1-2,4.72,6.67,6.67,0,1,1,0-9.44,6.61,6.61,0,0,1,1.46,2.16A7,7,0,0,1,53.17,105.13ZM46.5,101a4.12,4.12,0,0,0-1.65.33,4.2,4.2,0,0,0-2.21,2.23,4.14,4.14,0,0,0,0,3.24,4.37,4.37,0,0,0,.89,1.33,4.07,4.07,0,0,0,1.32.9,4.12,4.12,0,0,0,1.65.33,4.12,4.12,0,0,0,3-1.24,4.45,4.45,0,0,0,.89-1.32,4,4,0,0,0,.33-1.62,4,4,0,0,0-.33-1.61,4.37,4.37,0,0,0-.89-1.33,4.43,4.43,0,0,0-1.33-.91A4.06,4.06,0,0,0,46.5,101Z" transform="translate(-26.41 -23.93)"/><path class="cls-1" d="M57.55,99.69A6.18,6.18,0,0,1,63.66,99a6.39,6.39,0,0,1,2,1.33,6.48,6.48,0,0,1,1.36,2,6,6,0,0,1,.5,2.43v5.87a1.25,1.25,0,0,1-1.24,1.25A1.23,1.23,0,0,1,65,110.55v-5.87a3.51,3.51,0,0,0-.3-1.44,4.08,4.08,0,0,0-.8-1.19,3.89,3.89,0,0,0-1.19-.8,3.51,3.51,0,0,0-1.44-.3,3.68,3.68,0,0,0-1.45.29,3.88,3.88,0,0,0-1.18.81,3.75,3.75,0,0,0-.81,1.19,3.67,3.67,0,0,0-.29,1.44v5.87a1.23,1.23,0,0,1-1.24,1.25,1.23,1.23,0,0,1-.89-.36,1.21,1.21,0,0,1-.36-.89V99.71a1.22,1.22,0,0,1,.36-.88,1.25,1.25,0,0,1,2.13.86Z" transform="translate(-26.41 -23.93)"/><path class="cls-1" d="M72.5,110.11a1.67,1.67,0,0,1-.49,1.2,1.69,1.69,0,1,1,0-2.4A1.67,1.67,0,0,1,72.5,110.11Z" transform="translate(-26.41 -23.93)"/><path class="cls-1" d="M88.76,107.51a1.17,1.17,0,0,1,.49.11,1.31,1.31,0,0,1,.4.26,1.41,1.41,0,0,1,.27.4,1.21,1.21,0,0,1,.1.5,1.27,1.27,0,0,1-.39.9,9.32,9.32,0,0,1-6,2.12,9.53,9.53,0,0,1,0-19.06A9.46,9.46,0,0,1,89.75,95a1.18,1.18,0,0,1,.33.87,1.35,1.35,0,0,1-.09.5,1.56,1.56,0,0,1-.27.4,1.46,1.46,0,0,1-.41.27A1.29,1.29,0,0,1,88,96.75a6.62,6.62,0,0,0-2-1.1,7,7,0,0,0-2.31-.38A7,7,0,1,0,88,107.74,1.38,1.38,0,0,1,88.76,107.51Z" transform="translate(-26.41 -23.93)"/><path class="cls-1" d="M95.13,96.09a1.4,1.4,0,0,1-.43,1,1.42,1.42,0,0,1-1,.43,1.44,1.44,0,0,1-1-.43,1.4,1.4,0,0,1-.43-1,1.47,1.47,0,1,1,2.93,0Zm-2.7,14.46V99.71a1.23,1.23,0,0,1,.36-.89,1.21,1.21,0,0,1,.88-.36,1.19,1.19,0,0,1,.87.36,1.29,1.29,0,0,1,.38.89v10.84a1.27,1.27,0,0,1-.38.89,1.19,1.19,0,0,1-.87.36,1.23,1.23,0,0,1-1.24-1.25Z" transform="translate(-26.41 -23.93)"/><path class="cls-1" d="M98.65,98.46h.56V94a1.25,1.25,0,0,1,1.25-1.24,1.16,1.16,0,0,1,.87.37,1.19,1.19,0,0,1,.37.87v4.48h1.48a1.15,1.15,0,0,1,.87.36,1.27,1.27,0,0,1,0,1.77,1.15,1.15,0,0,1-.87.36H101.7v6a2.1,2.1,0,0,0,2.38,2.37,1.16,1.16,0,0,1,.87.37,1.18,1.18,0,0,1,.35.87,1.21,1.21,0,0,1-.35.89,1.19,1.19,0,0,1-.87.36q-4.87,0-4.87-4.86v-6h-.56a1.19,1.19,0,0,1-.87-.36,1.27,1.27,0,0,1,0-1.77A1.19,1.19,0,0,1,98.65,98.46Z" transform="translate(-26.41 -23.93)"/><path class="cls-1" d="M111.39,110.56l-4.29-10.3a1.38,1.38,0,0,1-.12-.56,1.29,1.29,0,0,1,.1-.48,1.31,1.31,0,0,1,.26-.4,1.31,1.31,0,0,1,.88-.36,1.22,1.22,0,0,1,.69.21,1.25,1.25,0,0,1,.49.61l3.35,8,3.35-8a1.36,1.36,0,0,1,.41-.58,1.33,1.33,0,0,1,1.24-.12,1.15,1.15,0,0,1,.66.66,1.13,1.13,0,0,1,.11.48,1.4,1.4,0,0,1-.14.56l-6.84,16.43a1.56,1.56,0,0,1-.48.6,1.22,1.22,0,0,1-.7.23,1.21,1.21,0,0,1-1.24-1.25,1.33,1.33,0,0,1,.12-.55Z" transform="translate(-26.41 -23.93)"/><path class="cls-2" d="M101.71,57.45" transform="translate(-26.41 -23.93)"/><path class="cls-2" d="M103.15,57.45" transform="translate(-26.41 -23.93)"/><line class="cls-3" x1="60.29" y1="16.28" x2="60.29" y2="16.68"/><path class="cls-3" d="M44.25,40.48H90.69A10.62,10.62,0,0,1,101.31,51.1v25A10.72,10.72,0,0,1,90.58,86.86H46.08A10.73,10.73,0,0,1,35.34,76.13V35.42" transform="translate(-26.41 -23.93)"/><path class="cls-3" d="M78.86,29.48H41.34a6,6,0,0,0-6,6h0a5,5,0,0,0,5,5l44.59.07v-5A6.11,6.11,0,0,0,78.86,29.48Z" transform="translate(-26.41 -23.93)"/><rect class="cls-4" x="64.63" y="32.62" width="16.54" height="10.99" rx="4.55"/><path class="cls-5" d="M42.15,40.43l3.51-13.76a1.65,1.65,0,0,1,2-1.19L90.29,36.37a1.65,1.65,0,0,1,1.19,2l-.54,2.1Z" transform="translate(-26.41 -23.93)"/><path class="cls-6" d="M61.85,69.54" transform="translate(-26.41 -23.93)"/><circle class="cls-6" cx="41.58" cy="54.68" r="0.5"/><circle class="cls-6" cx="35.34" cy="54.68" r="0.5"/><circle class="cls-6" cx="31.38" cy="38.66" r="0.5"/><circle class="cls-6" cx="35.34" cy="24.44" r="0.5"/><line class="cls-2" x1="35.34" y1="24.44" x2="35.34" y2="54.68"/><path class="cls-2" d="M69.82,62.47a8.07,8.07,0,0,1,0,16.14H68" transform="translate(-26.41 -23.93)"/><line class="cls-2" x1="43.41" y1="38.55" x2="31.35" y2="38.66"/><circle class="cls-6" cx="31.38" cy="24.37" r="0.5"/><circle class="cls-6" cx="39.24" cy="24.37" r="0.5"/></svg>