<svg width="140" height="35" viewBox="0 0 140 35" fill="none" xmlns="http://www.w3.org/2000/svg">
<path d="M25.0367 23.0969L20.8572 18.9873L5.51404 34.1175L25.0367 23.0969Z" fill="#DC2C41"/>
<path d="M25.0367 11.9103L5.51404 0.889648L20.8572 16.0199L25.0367 11.9103Z" fill="#00F076"/>
<path d="M31.1543 19.5809C32.4056 18.6038 32.4056 16.4017 31.0712 15.4247L26.9762 13.0942L22.4072 17.5042L26.9762 21.9142L31.1543 19.5809Z" fill="#FED700"/>
<path d="M1.50792 35L19.3492 17.4971L1.50792 0.00145833V0C0.605208 0.465208 0 1.3125 0 2.41354V32.5865C0 33.6875 0.605208 34.5348 1.50792 35Z" fill="#00D7FE"/>
<path d="M44.8825 9.12C44.3225 9.12 43.8192 9.01667 43.3725 8.81C42.9259 8.60333 42.5925 8.34 42.3725 8.02L42.8625 7.49C43.0625 7.75667 43.3425 7.97333 43.7025 8.14C44.0692 8.3 44.4559 8.38 44.8625 8.38C45.3825 8.38 45.7925 8.27 46.0925 8.05C46.3925 7.82333 46.5425 7.51667 46.5425 7.13C46.5425 6.73 46.3859 6.43333 46.0725 6.24C45.7659 6.04667 45.3459 5.95 44.8125 5.95H43.4525V5.21H44.8125C45.2859 5.21 45.6725 5.12 45.9725 4.94C46.2792 4.75333 46.4325 4.47667 46.4325 4.11C46.4325 3.75 46.2792 3.47 45.9725 3.27C45.6725 3.07 45.2925 2.97 44.8325 2.97C44.0792 2.97 43.4492 3.24 42.9425 3.78L42.4825 3.26C42.7492 2.95333 43.0892 2.70667 43.5025 2.52C43.9225 2.32667 44.3859 2.23 44.8925 2.23C45.5725 2.23 46.1392 2.39 46.5925 2.71C47.0525 3.03 47.2825 3.46333 47.2825 4.01C47.2825 4.45 47.1325 4.80333 46.8325 5.07C46.5392 5.33 46.2092 5.49333 45.8425 5.56C46.2092 5.59333 46.5559 5.75333 46.8825 6.04C47.2159 6.32667 47.3825 6.71333 47.3825 7.2C47.3825 7.76 47.1525 8.22 46.6925 8.58C46.2325 8.94 45.6292 9.12 44.8825 9.12ZM52.4424 9H51.6924V8.45C51.2857 8.89667 50.7524 9.12 50.0924 9.12C49.6457 9.12 49.2524 8.97667 48.9124 8.69C48.5724 8.40333 48.4024 8.01333 48.4024 7.52C48.4024 7.01333 48.569 6.62333 48.9024 6.35C49.2424 6.07 49.639 5.93 50.0924 5.93C50.779 5.93 51.3124 6.15 51.6924 6.59V5.72C51.6924 5.4 51.579 5.15 51.3524 4.97C51.1257 4.79 50.8324 4.7 50.4724 4.7C49.9057 4.7 49.4124 4.92333 48.9924 5.37L48.6424 4.85C49.1557 4.31667 49.799 4.05 50.5724 4.05C51.1257 4.05 51.5757 4.18333 51.9224 4.45C52.269 4.71667 52.4424 5.12667 52.4424 5.68V9ZM50.3624 8.58C50.9624 8.58 51.4057 8.38 51.6924 7.98V7.07C51.4057 6.67 50.9624 6.47 50.3624 6.47C50.0157 6.47 49.729 6.57 49.5024 6.77C49.2824 6.96333 49.1724 7.21667 49.1724 7.53C49.1724 7.83667 49.2824 8.09 49.5024 8.29C49.729 8.48333 50.0157 8.58 50.3624 8.58ZM57.3258 4.17V4.83H54.6958V9H53.9458V4.17H57.3258ZM60.6813 9.12C60.0013 9.12 59.4579 8.83667 59.0513 8.27V10.84H58.3013V4.17H59.0513V4.89C59.2313 4.63667 59.4646 4.43333 59.7513 4.28C60.0379 4.12667 60.3479 4.05 60.6813 4.05C61.3213 4.05 61.8379 4.28 62.2313 4.74C62.6313 5.19333 62.8313 5.80667 62.8313 6.58C62.8313 7.35333 62.6313 7.97 62.2313 8.43C61.8379 8.89 61.3213 9.12 60.6813 9.12ZM60.4913 8.45C60.9646 8.45 61.3413 8.27667 61.6213 7.93C61.9013 7.57667 62.0413 7.12667 62.0413 6.58C62.0413 6.03333 61.9013 5.58667 61.6213 5.24C61.3413 4.89333 60.9646 4.72 60.4913 4.72C60.2046 4.72 59.9246 4.79667 59.6513 4.95C59.3846 5.09667 59.1846 5.27667 59.0513 5.49V7.67C59.1846 7.89 59.3846 8.07667 59.6513 8.23C59.9246 8.37667 60.2046 8.45 60.4913 8.45ZM63.7539 10.89L63.8739 10.21C63.9939 10.2633 64.1306 10.29 64.2839 10.29C64.4573 10.29 64.6006 10.2533 64.7139 10.18C64.8273 10.1067 64.9239 9.97333 65.0039 9.78L65.3239 9.05L63.3039 4.17H64.1139L65.7239 8.13L67.3239 4.17H68.1439L65.7239 9.98C65.4573 10.62 64.9839 10.9467 64.3039 10.96C64.1039 10.96 63.9206 10.9367 63.7539 10.89ZM70.6363 9.12C69.7096 9.12 68.9829 8.85667 68.4563 8.33L68.8263 7.85C69.2796 8.28333 69.8829 8.5 70.6363 8.5C71.0696 8.5 71.4129 8.42333 71.6663 8.27C71.9263 8.11667 72.0563 7.91333 72.0563 7.66C72.0563 7.12667 71.5496 6.86 70.5363 6.86H69.4563V6.25H70.5363C70.9563 6.25 71.2996 6.18333 71.5663 6.05C71.8329 5.91 71.9663 5.70667 71.9663 5.44C71.9663 5.21333 71.8329 5.03 71.5663 4.89C71.2996 4.74333 70.9629 4.67 70.5563 4.67C69.8829 4.67 69.3429 4.87667 68.9363 5.29L68.5463 4.83C69.0463 4.31667 69.7063 4.06 70.5263 4.06C71.1863 4.05333 71.7196 4.16667 72.1263 4.4C72.5396 4.62667 72.7463 4.94333 72.7463 5.35C72.7463 5.68333 72.6096 5.95333 72.3363 6.16C72.0696 6.36667 71.7729 6.49 71.4463 6.53C71.7863 6.55667 72.1029 6.67 72.3963 6.87C72.6963 7.07 72.8463 7.35 72.8463 7.71C72.8463 8.12333 72.6463 8.46333 72.2463 8.73C71.8529 8.99 71.3163 9.12 70.6363 9.12ZM74.783 9H74.063V4.17H74.813V7.86L77.343 4.17H78.083V9H77.333V5.24L74.783 9ZM81.2106 9H80.4606V4.83H79.0606V4.17H82.6206V4.83H81.2106V9ZM85.784 9.12C85.064 9.12 84.474 8.88667 84.014 8.42C83.554 7.94667 83.324 7.33333 83.324 6.58C83.324 5.87333 83.5507 5.27667 84.004 4.79C84.4573 4.29667 85.024 4.05 85.704 4.05C86.4173 4.05 86.9807 4.29667 87.394 4.79C87.814 5.27667 88.024 5.89333 88.024 6.64V6.83H84.114C84.1473 7.30333 84.3207 7.7 84.634 8.02C84.9473 8.34 85.354 8.5 85.854 8.5C86.454 8.5 86.9507 8.29667 87.344 7.89L87.704 8.38C87.2107 8.87333 86.5707 9.12 85.784 9.12ZM87.284 6.28C87.2773 5.86667 87.1373 5.49667 86.864 5.17C86.5907 4.83667 86.2007 4.67 85.694 4.67C85.214 4.67 84.834 4.83333 84.554 5.16C84.2807 5.48667 84.134 5.86 84.114 6.28H87.284ZM94.5269 9H91.8169V4.17H94.4769C94.8969 4.17 95.2269 4.28333 95.4669 4.51C95.7136 4.73667 95.8369 5.03667 95.8369 5.41C95.8369 5.68333 95.7602 5.92 95.6069 6.12C95.4602 6.31333 95.2769 6.44333 95.0569 6.51C95.3036 6.57 95.5102 6.71333 95.6769 6.94C95.8502 7.16667 95.9369 7.41667 95.9369 7.69C95.9369 8.08333 95.8102 8.4 95.5569 8.64C95.3102 8.88 94.9669 9 94.5269 9ZM94.3769 8.34C94.6169 8.34 94.8069 8.27333 94.9469 8.14C95.0869 8.00667 95.1569 7.82667 95.1569 7.6C95.1569 7.39333 95.0869 7.21667 94.9469 7.07C94.8069 6.92333 94.6169 6.85 94.3769 6.85H92.5669V8.34H94.3769ZM94.3469 6.19C94.5736 6.19 94.7502 6.13 94.8769 6.01C95.0036 5.88333 95.0669 5.72 95.0669 5.52C95.0669 5.30667 95.0036 5.14 94.8769 5.02C94.7502 4.89333 94.5736 4.83 94.3469 4.83H92.5669V6.19H94.3469Z" fill="white"/>
<path d="M49.1205 30.234C47.3445 30.234 45.8505 29.658 44.6385 28.506C43.4265 27.354 42.8205 25.854 42.8205 24.006C42.8205 22.158 43.4265 20.664 44.6385 19.524C45.8505 18.372 47.3445 17.796 49.1205 17.796C51.1845 17.796 52.7985 18.63 53.9625 20.298L52.2345 21.27C51.8985 20.802 51.4545 20.418 50.9025 20.118C50.3625 19.818 49.7685 19.668 49.1205 19.668C47.9325 19.668 46.9425 20.076 46.1505 20.892C45.3705 21.708 44.9805 22.746 44.9805 24.006C44.9805 25.266 45.3705 26.31 46.1505 27.138C46.9425 27.954 47.9325 28.362 49.1205 28.362C49.6845 28.362 50.2185 28.254 50.7225 28.038C51.2385 27.822 51.6525 27.57 51.9645 27.282V25.41H48.3825V23.556H54.0705V28.056C52.7625 29.508 51.1125 30.234 49.1205 30.234ZM60.1329 30.216C58.7889 30.216 57.7089 29.778 56.8929 28.902C56.0769 28.014 55.6689 26.928 55.6689 25.644C55.6689 24.36 56.0769 23.28 56.8929 22.404C57.7089 21.528 58.7889 21.09 60.1329 21.09C61.4889 21.09 62.5749 21.528 63.3909 22.404C64.2069 23.28 64.6149 24.36 64.6149 25.644C64.6149 26.94 64.2069 28.026 63.3909 28.902C62.5749 29.778 61.4889 30.216 60.1329 30.216ZM60.1329 28.542C60.9129 28.542 61.5249 28.266 61.9689 27.714C62.4249 27.15 62.6529 26.46 62.6529 25.644C62.6529 24.84 62.4249 24.162 61.9689 23.61C61.5249 23.046 60.9129 22.764 60.1329 22.764C59.3649 22.764 58.7529 23.046 58.2969 23.61C57.8529 24.162 57.6309 24.84 57.6309 25.644C57.6309 26.46 57.8529 27.15 58.2969 27.714C58.7529 28.266 59.3649 28.542 60.1329 28.542ZM70.4512 30.216C69.1072 30.216 68.0272 29.778 67.2112 28.902C66.3952 28.014 65.9872 26.928 65.9872 25.644C65.9872 24.36 66.3952 23.28 67.2112 22.404C68.0272 21.528 69.1072 21.09 70.4512 21.09C71.8072 21.09 72.8932 21.528 73.7092 22.404C74.5252 23.28 74.9332 24.36 74.9332 25.644C74.9332 26.94 74.5252 28.026 73.7092 28.902C72.8932 29.778 71.8072 30.216 70.4512 30.216ZM70.4512 28.542C71.2312 28.542 71.8432 28.266 72.2872 27.714C72.7432 27.15 72.9712 26.46 72.9712 25.644C72.9712 24.84 72.7432 24.162 72.2872 23.61C71.8432 23.046 71.2312 22.764 70.4512 22.764C69.6832 22.764 69.0712 23.046 68.6152 23.61C68.1712 24.162 67.9492 24.84 67.9492 25.644C67.9492 26.46 68.1712 27.15 68.6152 27.714C69.0712 28.266 69.6832 28.542 70.4512 28.542ZM80.3736 33.528C78.8976 33.528 77.6856 33.096 76.7376 32.232L77.6196 30.864C78.2676 31.608 79.1856 31.98 80.3736 31.98C81.0936 31.98 81.6996 31.788 82.1916 31.404C82.6956 31.032 82.9476 30.438 82.9476 29.622V28.578C82.2036 29.538 81.2736 30.018 80.1576 30.018C79.0176 30.018 78.0876 29.622 77.3676 28.83C76.6596 28.038 76.3056 26.946 76.3056 25.554C76.3056 24.174 76.6596 23.088 77.3676 22.296C78.0876 21.492 79.0176 21.09 80.1576 21.09C81.2976 21.09 82.2276 21.564 82.9476 22.512V21.306H84.8376V29.55C84.8376 30.294 84.7056 30.936 84.4416 31.476C84.1896 32.028 83.8416 32.442 83.3976 32.718C82.9536 33.006 82.4796 33.21 81.9756 33.33C81.4836 33.462 80.9496 33.528 80.3736 33.528ZM80.7156 28.344C81.1476 28.344 81.5736 28.23 81.9936 28.002C82.4136 27.774 82.7316 27.498 82.9476 27.174V23.934C82.7316 23.61 82.4136 23.334 81.9936 23.106C81.5736 22.878 81.1476 22.764 80.7156 22.764C79.9716 22.764 79.3776 23.022 78.9336 23.538C78.4896 24.042 78.2676 24.714 78.2676 25.554C78.2676 26.394 78.4896 27.072 78.9336 27.588C79.3776 28.092 79.9716 28.344 80.7156 28.344ZM89.177 30H87.287V17.994H89.177V30ZM95.6428 30.216C94.3228 30.216 93.2308 29.796 92.3668 28.956C91.5148 28.104 91.0888 27 91.0888 25.644C91.0888 24.372 91.5028 23.298 92.3308 22.422C93.1708 21.534 94.2268 21.09 95.4988 21.09C96.7828 21.09 97.8148 21.534 98.5948 22.422C99.3868 23.31 99.7828 24.444 99.7828 25.824V26.274H93.0688C93.1408 26.958 93.4228 27.528 93.9148 27.984C94.4068 28.44 95.0488 28.668 95.8408 28.668C96.2848 28.668 96.7288 28.584 97.1728 28.416C97.6288 28.248 98.0068 28.014 98.3068 27.714L99.1708 28.956C98.2948 29.796 97.1188 30.216 95.6428 30.216ZM97.9468 24.942C97.9228 24.342 97.7008 23.808 97.2808 23.34C96.8728 22.872 96.2788 22.638 95.4988 22.638C94.7548 22.638 94.1728 22.872 93.7528 23.34C93.3328 23.796 93.0988 24.33 93.0508 24.942H97.9468ZM108.431 30H106.325V17.994H111.599C112.811 17.994 113.765 18.354 114.461 19.074C115.169 19.794 115.523 20.688 115.523 21.756C115.523 22.812 115.169 23.706 114.461 24.438C113.765 25.158 112.811 25.518 111.599 25.518H108.431V30ZM111.311 23.664C111.911 23.664 112.403 23.49 112.787 23.142C113.171 22.794 113.363 22.332 113.363 21.756C113.363 21.18 113.171 20.718 112.787 20.37C112.403 20.022 111.911 19.848 111.311 19.848H108.431V23.664H111.311ZM119.113 30H117.223V17.994H119.113V30ZM128.764 30H126.874V29.064C126.202 29.832 125.266 30.216 124.066 30.216C123.274 30.216 122.572 29.964 121.96 29.46C121.348 28.944 121.042 28.236 121.042 27.336C121.042 26.412 121.342 25.71 121.942 25.23C122.554 24.75 123.262 24.51 124.066 24.51C125.302 24.51 126.238 24.882 126.874 25.626V24.33C126.874 23.826 126.688 23.43 126.316 23.142C125.944 22.854 125.452 22.71 124.84 22.71C123.868 22.71 123.01 23.076 122.266 23.808L121.492 22.494C122.476 21.558 123.694 21.09 125.146 21.09C126.214 21.09 127.084 21.342 127.756 21.846C128.428 22.35 128.764 23.148 128.764 24.24V30ZM124.804 28.92C125.752 28.92 126.442 28.62 126.874 28.02V26.706C126.442 26.106 125.752 25.806 124.804 25.806C124.264 25.806 123.82 25.95 123.472 26.238C123.124 26.526 122.95 26.904 122.95 27.372C122.95 27.84 123.124 28.218 123.472 28.506C123.82 28.782 124.264 28.92 124.804 28.92ZM130.837 33.402L131.125 31.71C131.341 31.806 131.581 31.854 131.845 31.854C132.457 31.854 132.871 31.602 133.087 31.098L133.519 30.108L129.955 21.306H131.971L134.509 27.822L137.047 21.306H139.081L134.887 31.566C134.371 32.85 133.375 33.504 131.899 33.528C131.503 33.528 131.149 33.486 130.837 33.402Z" fill="white"/>
</svg>
