<svg width="49" height="49" viewBox="0 0 49 49" fill="none" xmlns="http://www.w3.org/2000/svg">
<path d="M36.7498 18.375C36.7498 8.22768 28.5225 0 18.375 0C8.22768 0 0 8.22768 0 18.375C0 28.5223 8.22768 36.7496 18.375 36.7496C28.5225 36.7496 36.7498 28.5223 36.7498 18.375ZM18.375 32.1557C10.7756 32.1557 4.59388 25.9746 4.59388 18.3751C4.59388 10.7757 10.7756 4.59398 18.375 4.59398C25.9742 4.59398 32.1564 10.7757 32.1564 18.3751C32.1564 25.9746 25.9742 32.1557 18.375 32.1557Z" fill="white"/>
<path d="M47.6535 41.1588L36.4122 29.9165C34.7372 32.5215 32.5206 34.737 29.9156 36.4121L41.1579 47.6543C42.9526 49.4486 45.8625 49.4486 47.6534 47.6543C49.4482 45.8629 49.4482 42.953 47.6535 41.1588Z" fill="white"/>
</svg>
