<svg width="25" height="21" viewBox="0 0 25 21" fill="none" xmlns="http://www.w3.org/2000/svg">
<path d="M9.32671 20.4611C8.24563 20.4611 7.13288 20.3735 6.01346 20.198C4.04185 19.8887 2.046 18.8574 1.48124 18.5486L0 17.7387L1.60369 17.2113C3.35673 16.6349 4.42312 16.2773 5.74319 15.7173C4.42141 15.0772 3.4027 13.9257 2.91232 12.4372L2.53924 11.3046L2.84518 11.3514C2.55507 11.059 2.326 10.7622 2.14843 10.4923C1.51691 9.53309 1.18255 8.36102 1.2537 7.35661L1.32389 6.36804L1.91573 6.5973C1.66606 6.1258 1.48563 5.62226 1.37958 5.0945C1.12114 3.80742 1.33743 2.44004 1.98878 1.24433L2.50434 0.2979L3.19384 1.12607C5.37451 3.74562 8.13653 5.29954 11.4147 5.75444C11.2808 4.83148 11.3811 3.94074 11.7132 3.14233C12.0998 2.21269 12.7876 1.42438 13.7016 0.862475C14.7167 0.238581 15.9477 -0.0637337 17.1678 0.0112251C18.4623 0.0907616 19.6376 0.5758 20.5711 1.41484C21.0269 1.2964 21.3628 1.16994 21.8167 0.999041C22.0899 0.896235 22.3996 0.779505 22.7872 0.645991L24.2154 0.153895L23.2841 2.81388C23.3455 2.80873 23.4088 2.80435 23.475 2.80149L25.0001 2.73244L24.0987 3.9644C24.047 4.03497 24.0338 4.05499 24.0155 4.08265C23.9429 4.19213 23.8524 4.32832 22.6152 5.98046C22.3054 6.39417 22.1507 6.93299 22.1795 7.49795C22.2892 9.64486 22.0258 11.5873 21.3962 13.2711C20.8007 14.8641 19.8779 16.2309 18.6538 17.3336C17.139 18.6977 15.2074 19.6317 12.9125 20.1093C11.7868 20.3436 10.5779 20.4611 9.32671 20.4611Z" fill="#FF9635"/>
</svg>
